<svg xmlns="http://www.w3.org/2000/svg" version="1.1" width="600px" height="600px" xlink="http://www.w3.org/1999/xlink" style="overflow:hidden!important;"><g id="svga-group-wrapper" transform="scale(3 3)"><g id="svga-group-backs-single"><path id="SvgjsPath3571" d="M225 225H-25V-25h250V225z" fill="#ecf0f1" stroke-width="none" opacity="1"></path></g><g id="svga-group-subwrapper" ><g id="svga-group-hair-back" ><path id="SvgjsPath3357" d="M100.5,100.5h-1v-1h1V100.5z" fill="#2a232b" stroke-width="none" opacity="1"></path></g><g id="svga-group-humanbody-single"><path id="SvgjsPath2893" d="M195.417 199.778c-2.196-4.746-8.195-11.779-14.86-13.722 -8.239-2.403-26.837-5.308-33.733-6.923 -5.528-1.296-16.662-11.294-20.564-14.65 -0.7-0.6-1.273-1.839-1.287-2.76 -0.139-10.864 4.195-39.724 4.195-39.724H100 70.833c0 0 4.334 28.859 4.193 39.724 -0.011 0.921-0.587 2.16-1.285 2.76 -3.902 3.356-15.036 13.354-20.564 14.65 -6.897 1.615-25.495 4.619-33.733 7.022 -6.667 1.942-12.664 8.876-14.86 13.622 -3.708 8.008-4.584 22.5-4.584 35h100 100C200 222.278 199.123 207.786 195.417 199.778z" fill="#daa488" stroke-width="none" opacity="1" stroke="none"></path><path id="SvgjsPath2894" d="M159.156 184.058c24.342 3.542 34.586 8.708 37.794 50.721H200c0-12.5-0.877-26.992-4.583-35 -2.196-4.746-8.195-11.779-14.86-13.722 -8.239-2.403-26.837-5.308-33.733-6.923 -5.528-1.296-18.242-12.069-21.643-16.35 3.36 4.704 12.791 15.605 21.054 18.46C150.188 182.61 153.48 183.232 159.156 184.058zM53.766 181.244c8.263-2.854 17.693-13.756 21.054-18.46 -3.4 4.28-16.114 15.054-21.643 16.35 -6.896 1.615-25.494 4.619-33.733 7.022 -6.665 1.942-12.664 8.876-14.86 13.622 -3.706 8.008-4.583 22.5-4.583 35h3.05c3.188-41.744 13.475-47.183 37.794-50.721C46.52 183.232 49.813 182.61 53.766 181.244z" fill="#e9bfa9" stroke-width="none" opacity="1" stroke="none"></path><path id="SvgjsPath2895" d="M95.646 197.62c0 0-5.074-1.609-7.083-2.379 -10.449-4.009-44.395-6.607-44.395-6.607s35.754 1.419 43.644 2.779c-0.458-4.767-3.017-20.004-3.017-20.004s5.149 16.815 6.409 21.057C91.878 194.734 95.646 197.62 95.646 197.62zM106.445 196.278c-0.089 0.073-0.191 0.168-0.302 0.268C106.256 196.461 106.358 196.372 106.445 196.278zM95.646 197.62c0 0 2.893 2.992 4.347 3.03 1.91 0.051 4.828-2.899 6.151-4.104 -1.265 0.957-4.159 1.391-5.31 1.436C99.504 198.033 95.646 197.62 95.646 197.62zM116.664 190.101c-1.545 0.248-4.386 0.789-4.386 0.789l2.287-14.89c-0.646 3.071-4.474 16.211-8.12 20.278 1.91-1.616 6.158-2.391 8.324-2.704 10.236-1.484 10.232-1.483 41.062-4.94C155.831 188.634 126.76 188.479 116.664 190.101z" fill="#cb8b6a" stroke-width="none" opacity="1" stroke="none"></path><path id="SvgjsPath2896" d="M195.417 199.778c-2.196-4.746-8.195-11.779-14.86-13.722 -8.239-2.403-26.837-5.308-33.733-6.923 -5.528-1.296-16.662-11.294-20.564-14.65 -0.7-0.6-1.273-1.839-1.287-2.76 -0.139-10.864 4.195-39.724 4.195-39.724H100 70.833c0 0 4.334 28.859 4.193 39.724 -0.011 0.921-0.587 2.16-1.285 2.76 -3.902 3.356-15.036 13.354-20.564 14.65 -6.897 1.615-25.495 4.619-33.733 7.022 -6.667 1.942-12.664 8.876-14.86 13.622 -3.708 8.008-4.584 22.5-4.584 35h100 100C200 222.278 199.123 207.786 195.417 199.778z" fill="none" stroke="#ac5f38" stroke-width="1.5" opacity="1"></path></g><g id="svga-group-chinshadow-single"><path id="SvgjsPath3397" d="M75.085 163.986c6.598 3.574 14.825 5.886 25.017 5.88 10.183 0.006 18.332-2.283 24.839-5.829 -0.428-0.713-0.708-1.563-0.72-2.304 -0.126-9.877 3.345-34.021 4.076-38.983H71.703c0.73 4.963 4.202 29.106 4.074 38.982C75.768 162.441 75.497 163.279 75.085 163.986z" fill="url(#SvgjsLinearGradient3398)" opacity="1"></path></g><g id="svga-group-clothes-single" ><path id="SvgjsPath3622" d="M-4.807 234.6c1.472-10.806-0.208-11.777 4.116-33.015 1.228-7.384 2.66-13.32 8.141-10.607 4.045-6.008 15.513-6.566 57.339-20.658v-0.258c0.278-1.001 2.706-4.267 3.099-9.897 0.383-5.449 2.718-9.56 5.614-11.604 -6.746 23.685 23.144 14.953 24.208 31.108 0.084 1.273-0.974 10.149-0.813 10.969 3.355-0.679 6.721-0.684 10.359-0.645 -3.928-15.24-0.545-16.872 7.344-19.838 9.564-3.591 12.873-7.169 12.01-20.697 4.57 4.109 1.516 9.7 7.174 17.534 36.249 13.159 50.02 16.863 56.963 21.507 5.981-4.517 9.697 2.65 17.292 46.103C136.218 235.212 54.269 235.12-4.807 234.6z" fill="#386e77" stroke-width="none" opacity="1"></path><path id="SvgjsPath3623" d="M92.119 197.235c0.304-0.029 3.375-5.505 3.375-5.505 5.764-2.145 18.375 2.005 34.019-10.176C117.994 199.61 97.143 186.737 92.119 197.235zM70.115 179.378c8.754 10.018 23.629 13.732 26.773 10.686C96.885 190.135 79.619 189.396 70.115 179.378z" fill="#265e68" stroke-width="none" opacity="1"></path><path id="SvgjsPath3624" d="M73.607 149.423c0 0 0.705 6.944 0.82 11.739C72.326 156.482 71.897 155.232 73.607 149.423z" fill="#184f58" stroke-width="none" opacity="1"></path><path id="SvgjsPath3625" d="M4.781 194.15C0 207.902-0.398 222.744-3.298 234.612c-0.693-0.006-0.823 0.293-1.509 0.287 1.472-10.806-0.208-12.355 4.116-33.593 1.228-7.384 2.66-13.32 8.141-10.607 4.045-6.008 15.513-6.566 57.339-20.658v-0.258c0.278-1.001 2.706-4.267 3.099-9.897 0.345-4.904 2.622-9.431 5.25-11.325 -5.936 6.453-1.918 18.345-8.092 22.976C53.103 178.967 18.588 187.846 4.781 194.15zM190.747 188.499c-6.943-4.644-20.714-8.348-56.963-21.507 -5.658-7.834-2.604-13.425-7.174-17.534 0.063 1.001-0.018 0.613 0 1.51 2.161-0.43 2.695 15.819 7.443 18.193 19 9 45.261 17.317 59.521 22.632 6.636 10.021 8.157 26.964 13.401 42.817 1.067-0.009 0 0 1.063-0.009C200.444 191.149 196.729 183.982 190.747 188.499zM125.992 162.465c-7.33 12.798-21.646 4.662-20.242 19.81C108.488 167.635 121.171 175.921 125.992 162.465zM97.372 184.295c2.628-16.491-15.517-13.785-23.633-23.296C78.812 171.409 95.553 168.227 97.372 184.295z" fill="#4d7e86" stroke-width="none" opacity="1"></path><path id="SvgjsPath3626" d="M196.139 187.915c-1.581-1.609-3.779-1.259-5.409-0.029 -7.133-4.756-26.235-9.496-56.63-21.609 0 0-2.289-2.963-3.469-8.017 -0.783-3.353-0.308-7.087-4.192-9.838 -0.749 9.286-0.411 16.736-9.51 20.304 -8.959 3.582-14.71 3.744-10.319 20.76 -2.301-0.026-6.457-0.018-9.318 0.563 -0.058-0.295 1.027-8.769 0.918-10.412 -1.014-15.376-28.515-9.625-24.93-27.551 0.33-1.649 0.454-2.542 0.187-3.81 -3.67 1.92-5.337 6.074-5.847 9.51 -0.556 3.889 0.319 4.852-3.32 12.13 0 0.011-0.01 0.021-0.01 0.03 -0.17 0.05-0.35 0.11-0.53 0.17 -41.434 13.791-52.827 14.785-56.48 20.22 -5.931-2.941-7.458 5.121-8.46 11.15 -4.398 21.597-2.602 22.344-4.2 33.61 1 0 109.661 0.96 212.96 0.01 0.36 0 0.71-0.01 1.06-0.01C208.319 233.75 202.222 193.853 196.139 187.915zM117.52 170.155c9.877-4.015 9.506-9.654 9.367-19.766 3.437 1.52 0.914 8.914 6.792 16.516 0 4.854-1.267 9.955-4.229 13.46 -5.51 6.101-14.719 9.317-22.23 9.13C104.685 173.337 107.914 174.091 117.52 170.155zM68.349 159.005c0.062-2.714 2.16-8.263 4.9-10.1 -8.723 23.076 22.427 15.489 23.73 31.92 0.027 0.457-0.38 8.333-0.39 8.84 -16.104-1.896-23.674-5.555-31.64-19.189 0.02-0.04 0.04-0.08 0.06-0.12 0.01 0.01 0.01 0 0.01 0C67.547 165.299 68.017 164.151 68.349 159.005zM-4.591 234.455c1.436-5.179 1.375-14.908 4.04-28.63 1.58-7.847 1.629-17.345 7.48-15.03 0.02 0 0.03 0.011 0.04 0.011 3.516 8.49 11.016 31.499 11.33 32.5 0.155 0.456 2.074 8.248 2.56 9.89 -2.124-16.99-11.493-39.731-12.99-42.14 4.051-4.15 3.094-2.325 35.92-12.7 7.099-2.245 19.409-7.106 20.27-7.601 9.185 19.855 28.548 19.105 32.33 19.521 -11.02 3.397-4.729 31.249-3.77 40.96 -0.163-7.896-3.465-29.31 1.25-36.84 0 0 0.648-1.301 3.14-2.38 6.946-2.627 15.325 2.951 29.95-7.34 4.758-4.518 7.13-7.39 7.13-17.53 24.029 11.337 46.962 16.747 56.11 21.7 -0.013 0.081-0.05 0.414-0.05 0.42 -1.544 13.248 1.243-1.169-4.4 28.689 -1.47 8.541-0.406 5.667-1.13 13.28 1.481-7.851-0.067-3.756 2.12-13.12 4.586-19.338 3.858-22.946 4.16-29.39 3.326-2.396 5.107 0.213 6.399 3.96 4.836 14.695 7.982 34.133 10.09 41.76C141.558 233.843 61.242 233.874-4.591 234.455zM107.847 202.681c-3.239 1.259-7.306 0.944-10.905 0.433C103.167 202.238 107.208 202.645 107.847 202.681z" fill="#0c4049" stroke-width="none" opacity="1"></path></g><g id="svga-group-head" ><g id="svga-group-ears-left" ><path id="SvgjsPath2906" d="M45.671 84.344c-1.485-2.462-6.327-9.199-10.031-8.254 -3.012 0.772-2.973 4.971-3.206 7.455 -0.34 3.644-0.464 9.992 0.525 12.568 0.951 2.473 3.96 7.252 5.828 9.075 2.299 2.235 5.97 9.358 6.422 10.097 0.711 1.168 2.137 2.84 4.325 2.708 3.071-0.185 5.724-3.087 5.965-4.485C56.8 105.918 49.536 90.75 45.671 84.344z" fill="#daa488" stroke="#ac5f38" stroke-width="1.5" opacity="1"></path><path id="SvgjsPath2907" d="M44.2 99.341c-0.143-0.563 0.007-1.513 0.154-2.429 0.133-0.835 0.258-1.624 0.182-2.182 -0.289-2.09-1.915-6.06-2.976-8.212 -1.223-2.476-3.199-5.595-5.679-6.399 -1.024-0.333-1.699 0.065-2.089 0.468 -0.288 0.296-0.353 0.645-0.259 0.687 0.095 0.041 0.307-0.248 0.617-0.519 0.254-0.222-0.508-0.04 0 0 -0.205 1.04-0.865 6.302-0.41 10.143 0.358 3.022 1.05 5.279 1.263 5.617 0.031 0.356 0.083 0.705 0.16 1.043 1.002 4.41 7.518 10.177 9.034 11.82 0.28 0.303 0.574 0.483 0.646 0.409s-0.101-0.373-0.379-0.678c-1.498-1.632-7.971-7.381-8.939-11.635 -1.027-4.514 3.912-11.207 4.699-12.623 0.401 0.665 0.742 1.303 1.004 1.835 0.207 0.417 0.434 0.906 0.67 1.435 -0.463 0.738-5.118 6.127-3.934 10.441 0.438 1.591 3.822 3.642 5.131 4.203 0.72 0.31 0.99 0.772 1.304 1.306 0.364 0.624 0.033 2.229 1.23 2.739 0.244 0.104 0.464 0.146 0.659 0.146 0.338 0 0.594-0.13 0.783-0.284 0.02 0.271 0.019 0.619 0.009 0.941 -0.012 0.418 0.047 0.609 0.148 0.617 0.103 0.009 0.21-0.174 0.223-0.587 0.017-0.51 0.014-1.141-0.077-1.444 -0.269-0.889-1.088-1.894-1.957-2.957C44.563 102.197 44.422 100.213 44.2 99.341zM34.969 95.432c-2.348-6.923 1.283-13.229 1.81-14.179 1.012 0.399 2.562 2.193 3.221 3.235C39.52 85.321 35.067 90.775 34.969 95.432zM45.772 106.464c-1.084-0.462-0.706-1.984-1.056-2.584 -0.318-0.542-0.646-1.102-1.479-1.46 -0.18-0.078-0.379-0.196-0.583-0.332 -2.682-6.075 0.293-8.73 1.039-9.273 0.229 0.742 0.399 1.423 0.476 1.97 0.068 0.5-0.059 1.298-0.181 2.068 -0.153 0.955-0.31 1.944-0.147 2.584 0.244 0.953 0.411 2.97 1.291 4.048 0.781 0.956 1.583 1.942 1.857 2.746C46.871 106.391 46.5 106.775 45.772 106.464z" fill="#ac5f38" stroke-width="none" opacity="1" stroke="none"></path></g><g id="svga-group-ears-right" ><path id="SvgjsPath2908" d="M154.066 84.344c1.486-2.462 6.328-9.199 10.031-8.254 3.012 0.772 2.973 4.971 3.207 7.455 0.34 3.644 0.463 9.992-0.525 12.568 -0.951 2.473-3.961 7.252-5.828 9.075 -2.299 2.235-5.971 9.358-6.422 10.097 -0.711 1.168-2.137 2.84-4.326 2.708 -3.07-0.185-5.723-3.087-5.965-4.485C142.938 105.918 150.203 90.75 154.066 84.344z" fill="#daa488" stroke="#ac5f38" stroke-width="1.5" opacity="1"></path><path id="SvgjsPath2909" d="M154.322 103.243c-0.869 1.063-1.688 2.068-1.957 2.957 -0.092 0.304-0.094 0.935-0.078 1.444 0.014 0.413 0.121 0.596 0.225 0.587 0.102-0.008 0.16-0.199 0.148-0.617 -0.01-0.322-0.012-0.67 0.008-0.941 0.189 0.154 0.445 0.284 0.783 0.284 0.195 0 0.416-0.042 0.66-0.146 1.195-0.511 0.865-2.116 1.229-2.739 0.314-0.534 0.584-0.997 1.305-1.306 1.309-0.561 4.693-2.611 5.131-4.203 1.184-4.314-3.471-9.704-3.934-10.441 0.234-0.529 0.463-1.018 0.668-1.435 0.264-0.532 0.604-1.171 1.006-1.835 0.787 1.416 5.725 8.108 4.699 12.623 -0.969 4.254-7.441 10.003-8.939 11.635 -0.279 0.305-0.453 0.604-0.381 0.678 0.074 0.074 0.367-0.106 0.646-0.409 1.516-1.643 8.031-7.41 9.033-11.82 0.078-0.338 0.131-0.687 0.162-1.043 0.211-0.337 0.904-2.594 1.262-5.617 0.455-3.841-0.205-9.103-0.41-10.143 0.508-0.04-0.254-0.222 0 0 0.311 0.271 0.523 0.56 0.617 0.519 0.094-0.042 0.029-0.39-0.258-0.687 -0.391-0.403-1.066-0.801-2.09-0.468 -2.48 0.804-4.457 3.923-5.68 6.399 -1.061 2.152-2.686 6.122-2.975 8.212 -0.076 0.558 0.049 1.347 0.182 2.182 0.146 0.916 0.297 1.866 0.154 2.429C155.316 100.213 155.176 102.197 154.322 103.243zM159.738 84.488c0.66-1.042 2.209-2.835 3.221-3.235 0.527 0.95 4.158 7.256 1.811 14.179C164.672 90.775 160.219 85.321 159.738 84.488zM152.75 106.229c0.273-0.804 1.076-1.79 1.857-2.746 0.879-1.078 1.047-3.095 1.291-4.048 0.162-0.64 0.006-1.629-0.146-2.584 -0.123-0.77-0.25-1.568-0.182-2.068 0.076-0.547 0.246-1.228 0.475-1.97 0.746 0.543 3.721 3.199 1.039 9.273 -0.203 0.136-0.402 0.254-0.584 0.332 -0.832 0.358-1.16 0.918-1.479 1.46 -0.35 0.6 0.029 2.123-1.055 2.584C153.238 106.775 152.867 106.391 152.75 106.229z" fill="#ac5f38" stroke-width="none" opacity="1" stroke="none"></path></g><g id="svga-group-faceshape-wrap" ><g id="svga-group-faceshape-single" ><path id="SvgjsPath3394" d="M100.103 0.867C66.481 0.814 39.286 28.147 39.234 61.929c-0.008 5.365 0.669 10.569 1.953 15.53l0.004 0c0.011 0.054 8.121 28.575 9.808 43.634 1.244 11.102 12.587 40.796 49.103 40.773 36.515 0.022 46.938-29.431 48.897-40.773 2.58-14.929 10.001-43.58 10.013-43.634l0.005 0c1.283-4.961 1.961-10.165 1.952-15.53C160.919 28.147 133.723 0.814 100.103 0.867z" fill="#daa488" stroke-width="none" opacity="1"></path><path id="SvgjsPath3395" d="M135.855 12.494c11.761 11.195 19.223 27.819 19.246 46.408 0.008 5.365-0.602 10.569-1.761 15.53l-0.005 0c-0.011 0.054-6.717 28.706-9.05 43.634 -1.771 11.343-11.189 40.795-44.184 40.773 -32.996 0.021-43.246-29.672-44.369-40.773 -1.526-15.059-8.853-43.581-8.863-43.634l-0.004 0c-1.162-4.961-1.772-10.165-1.765-15.53 0.026-18.59 7.489-35.215 19.25-46.41 -15.199 11.093-25.086 29.09-25.117 49.438 -0.008 5.365 0.669 10.569 1.953 15.53l0.004 0c0.011 0.054 8.121 28.575 9.808 43.634 1.244 11.102 12.587 40.796 49.103 40.773 36.515 0.022 46.938-29.431 48.897-40.773 2.58-14.929 10.001-43.58 10.013-43.634l0.005 0c1.283-4.961 1.961-10.165 1.952-15.53C160.939 41.583 151.053 23.587 135.855 12.494z" fill="#d29779" stroke-width="none" opacity="1"></path><path id="SvgjsPath3396" d="M100.103 0.867C66.481 0.814 39.286 28.147 39.234 61.929c-0.008 5.365 0.669 10.569 1.953 15.53l0.004 0c0.011 0.054 8.121 28.575 9.808 43.634 1.244 11.102 12.587 40.796 49.103 40.773 36.515 0.022 46.938-29.431 48.897-40.773 2.58-14.929 10.001-43.58 10.013-43.634l0.005 0c1.283-4.961 1.961-10.165 1.952-15.53C160.919 28.147 133.723 0.814 100.103 0.867z" fill="none" stroke="#ac5f38" stroke-width="1.5" opacity="1"></path></g></g><g id="svga-group-mouth-single" ><path id="SvgjsPath3014" d="M96.227 139.237l8.297-0.207C103.563 143.5 96.884 142.858 96.227 139.237z" fill="url(#SvgjsLinearGradient3015)" opacity="1"></path><path id="SvgjsPath3018" d="M96.343 139.52c-0.371-0.05-0.315-0.579 0.08-0.542 0.043 0.006 4.308 0.546 7.878-0.215 0.386-0.075 0.5 0.455 0.13 0.534C101.634 139.895 98.015 139.755 96.343 139.52zM100.083 135.95c-1.503 0-2.96-0.521-4.424-0.776 -1.64-0.287-3.274-0.041-4.915 0.104 -1.676 0.149-5.333-0.013-6.365-0.666 -0.578-0.367-0.47-1.221 0.181-1.449 0.614-0.22 1.571 0.236 2.191 0.347 2.872 0.515 4.384-0.034 6.902-0.118 3.851-0.116 4.26 1.501 9.064 0.53 5.165-1.044 7.491-0.254 11.197-1.37 0.508-0.154 1.112-0.56 1.645-0.286 0.615 0.318 0.585 1.185-0.049 1.464 -3.406 1.502-7.174 0.895-10.955 1.526C103.073 135.502 101.596 135.95 100.083 135.95z" fill="#ac5f38" stroke-width="none" opacity="1" stroke="none"></path></g><g id="svga-group-eyes-left" ><g id="svga-group-eyesback-left"><path id="SvgjsPath3412" d="M76.732 78.383c4.587 0.679 7.931 3.488 10.773 7.94 0.004 0.005 0.013 0.004 0.018 0.008 0.007 0.027 0.021 0.053 0.026 0.08 0.255 1.007-0.816 1.819-2.155 2.438 -4.771 0.609-9.359 1.489-14.194 0.87 -9.681-1.241-9.855-5.509-10.326-6.629 -0.252-1.101-0.325-1.417-0.311-2.473 2.332-1.366 4.043-1.647 5.854-2.005C68.541 78.194 73.268 77.868 76.732 78.383z" fill="url(#SvgjsRadialGradient3413)" opacity="1"></path></g><g id="svga-group-eyesiriswrapper-left" transform="translate(0.25 0)"><g id="svga-group-eyesiriscontrol-left" ><g id="svga-group-eyesiris-left" ><path id="SvgjsPath3558" d="M79.788 85.588c-0.869 3.192-4.162 5.073-7.361 4.196 -3.197-0.876-5.084-4.178-4.214-7.371 0.869-3.195 4.168-5.076 7.365-4.198C78.772 79.09 80.659 82.392 79.788 85.588z" fill="#4d3623" stroke="#1f1105" stroke-width="0.5" opacity="1"></path><path id="SvgjsPath3559" d="M78.855 85.662c-0.849 2.452-3.407 3.881-5.899 3.199 -2.3-0.631-3.752-2.838-3.563-5.171 0.853-0.067 1.787-0.087 2.756-0.04 -0.01 0.033-0.027 0.062-0.036 0.096 -0.306 1.125 0.407 2.305 1.592 2.63 1.189 0.326 2.401-0.326 2.707-1.451 0.039-0.147 0.06-0.294 0.065-0.439C77.29 84.782 78.088 85.165 78.855 85.662z" fill="#5c4633" stroke-width="none" opacity="1" stroke="none"></path><path id="SvgjsPath3560" d="M74.813 82.21c-1.203-0.344-2.429 0.342-2.739 1.54 -0.311 1.191 0.412 2.438 1.614 2.783 1.204 0.345 2.43-0.342 2.741-1.534C76.742 83.801 76.016 82.555 74.813 82.21zM75.075 86.442c-0.5 0.156-1.017-0.051-1.154-0.462 -0.133-0.411 0.163-0.867 0.667-1.019 0.503-0.156 1.019 0.051 1.157 0.459C75.881 85.831 75.582 86.287 75.075 86.442z" fill="#000000" stroke-width="none" opacity="0.9"></path><path id="SvgjsPath3561" d="M70.811 87.159c-0.37 0.222-0.922 0.023-1.238-0.447 -0.316-0.466-0.269-1.024 0.102-1.247 0.368-0.219 0.925-0.021 1.239 0.446C71.226 86.378 71.181 86.938 70.811 87.159z" fill="#ffffff" stroke-width="none" opacity="0.6"></path><path id="SvgjsPath3562" d="M78.71 83.74c-0.846 0.507-2.117 0.051-2.837-1.02 -0.72-1.072-0.612-2.352 0.234-2.857 0.844-0.509 2.118-0.053 2.834 1.019C79.66 81.954 79.556 83.232 78.71 83.74z" fill="#ffffff" stroke-width="none" opacity="0.8"></path></g></g></g><g id="svga-group-eyesfront-left"><path id="SvgjsPath3437" d="M55.112 83.583c3.224 11.315 7.475 23.313 17.685 23.669s22.135-7.239 22.29-22.238c0.173-16.767-10.474-23.381-20.684-23.737S50.307 66.714 55.112 83.583zM60.875 83.09c-0.252-1.101-0.325-1.417-0.311-2.473 2.027-1.21 4.04-1.547 5.851-1.905 2.123-0.418 6.853-0.845 10.317-0.329 4.587 0.679 7.931 3.488 10.773 7.94 0.004 0.005 0.013 0.004 0.018 0.008 0.007 0.027 0.021 0.053 0.026 0.08 0.255 1.007-0.816 1.819-2.155 2.438 -4.771 0.609-9.359 1.489-14.194 0.87C61.519 88.478 61.345 84.21 60.875 83.09z" fill="#daa488" stroke-width="none" opacity="1"></path><path id="SvgjsPath3438" d="M74.225 95.171c9.256 1.401 17.847-3.01 19.186-9.859 1.34-6.849-5.072-13.537-14.329-14.94 -9.258-1.399-17.845 3.012-19.185 9.862C58.557 87.082 64.967 93.766 74.225 95.171zM60.563 80.617c2.125-1.141 4.04-1.547 5.851-1.905 2.123-0.418 6.853-0.845 10.317-0.329 4.587 0.679 7.931 3.488 10.773 7.94 0.004 0.005 0.013 0.004 0.018 0.008 0.007 0.027 0.021 0.053 0.026 0.08 0.255 1.007-0.816 1.819-2.155 2.438 -4.771 0.609-9.359 1.489-14.194 0.87 -9.681-1.241-9.855-5.509-10.326-6.629C60.622 81.989 60.55 81.672 60.563 80.617z" fill="url(#SvgjsRadialGradient3439)" opacity="1"></path><path id="SvgjsPath3443" d="M60.875 83.09c-0.252-1.101-0.325-1.417-0.311-2.473 2.092-1.175 4.04-1.547 5.851-1.905 2.123-0.418 6.853-0.845 10.317-0.329 4.587 0.679 7.931 3.488 10.773 7.94 0.004 0.005 0.013 0.004 0.018 0.008 0.007 0.027 0.021 0.053 0.026 0.08 0.255 1.007-0.816 1.819-2.155 2.438 -4.771 0.609-9.359 1.489-14.194 0.87C61.519 88.478 61.345 84.21 60.875 83.09z" fill="url(#SvgjsRadialGradient3444)" opacity="1"></path><path id="SvgjsPath3447" d="M76.327 75.748c3.294 0.539 6.505 2.054 9.48 3.945 0.637 0.404 1.366 0.865 2.521 1.451 -0.828-0.188-1.594-0.617-2.309-1.011 0.736 0.698 1.422 1.529 1.982 2.334 -2.521-3.159-7.297-5.538-11.36-6.349 -3.902-0.779-10.989-0.264-16.251 2.042C65.208 75.449 72.237 75.08 76.327 75.748z" fill="#ac5f38" stroke-width="none" opacity="1"></path><path id="SvgjsPath3448" d="M87.508 86.277c-2.847-4.34-6.193-7.082-10.781-7.747 -4.833-0.705-11.271-0.221-15.034 1.843 -0.308 0.169-1.607 1.249-1.401 0.117 0.874-1.167 4.322-2.523 5.993-2.928C85.03 73.019 88.582 87.854 87.508 86.277zM60.646 82.841c-0.716 2.063 0.861 6.654 10.145 7.503 6.595 0.602 15.767-1.75 14.634-1.613 -4.779 0.589-9.375 1.449-14.219 0.839C60.224 88.19 61.468 83.023 60.646 82.841z" fill="#582311" stroke-width="none" opacity="1"></path></g></g><g id="svga-group-eyes-right" ><g id="svga-group-eyesback-right"><path id="SvgjsPath3420" d="M122.867 78.383c-4.586 0.679-7.931 3.488-10.773 7.94 -0.004 0.005-0.012 0.004-0.018 0.008 -0.006 0.027-0.02 0.053-0.025 0.08 -0.256 1.007 0.815 1.819 2.154 2.438 4.771 0.609 9.359 1.489 14.194 0.87 9.681-1.241 9.855-5.509 10.325-6.629 0.253-1.101 0.325-1.417 0.312-2.473 -2.331-1.366-4.043-1.647-5.854-2.005C131.059 78.194 126.332 77.868 122.867 78.383z" fill="url(#SvgjsRadialGradient3421)" opacity="1"></path></g><g id="svga-group-eyesiriswrapper-right" transform="translate(-0.25 0)"><g id="svga-group-eyesiriscontrol-right" ><g id="svga-group-eyesiris-right" ><path id="SvgjsPath3563" d="M131.788 85.588c-0.869 3.192-4.162 5.073-7.362 4.196 -3.196-0.876-5.084-4.178-4.214-7.371 0.869-3.195 4.169-5.076 7.365-4.198C130.772 79.09 132.658 82.392 131.788 85.588z" fill="#4d3623" stroke="#1f1105" stroke-width="0.5" opacity="1"></path><path id="SvgjsPath3564" d="M130.855 85.662c-0.849 2.452-3.408 3.881-5.899 3.199 -2.3-0.631-3.753-2.838-3.563-5.171 0.854-0.067 1.787-0.087 2.756-0.04 -0.01 0.033-0.027 0.062-0.036 0.096 -0.306 1.125 0.407 2.305 1.593 2.63 1.189 0.326 2.401-0.326 2.707-1.451 0.038-0.147 0.06-0.294 0.065-0.439C129.29 84.782 130.089 85.165 130.855 85.662z" fill="#5c4633" stroke-width="none" opacity="1" stroke="none"></path><path id="SvgjsPath3565" d="M126.813 82.21c-1.202-0.344-2.429 0.342-2.738 1.54 -0.312 1.191 0.412 2.438 1.613 2.783 1.204 0.345 2.431-0.342 2.742-1.534C128.741 83.801 128.016 82.555 126.813 82.21zM127.075 86.442c-0.5 0.156-1.018-0.051-1.154-0.462 -0.133-0.411 0.163-0.867 0.667-1.019 0.503-0.156 1.019 0.051 1.157 0.459C127.881 85.831 127.582 86.287 127.075 86.442z" fill="#000000" stroke-width="none" opacity="0.9"></path><path id="SvgjsPath3566" d="M122.812 87.159c-0.37 0.222-0.923 0.023-1.238-0.447 -0.316-0.466-0.27-1.024 0.102-1.247 0.367-0.219 0.926-0.021 1.239 0.446C123.227 86.378 123.181 86.938 122.812 87.159z" fill="#ffffff" stroke-width="none" opacity="0.6"></path><path id="SvgjsPath3567" d="M130.71 83.74c-0.846 0.507-2.116 0.051-2.837-1.02 -0.72-1.072-0.612-2.352 0.234-2.857 0.845-0.509 2.117-0.053 2.834 1.019C131.66 81.954 131.557 83.232 130.71 83.74z" fill="#ffffff" stroke-width="none" opacity="0.8"></path></g></g></g><g id="svga-group-eyesfront-right"><path id="SvgjsPath3458" d="M125.197 61.277c-10.211 0.356-20.857 6.97-20.685 23.737 0.154 15 12.079 22.595 22.29 22.238 10.21-0.356 16.187-17.323 17.685-23.669C148.517 66.512 135.407 60.921 125.197 61.277zM128.399 89.719c-4.835 0.619-9.423-0.261-14.194-0.87 -1.339-0.618-2.41-1.43-2.154-2.438 0.006-0.027 0.02-0.053 0.025-0.08 0.006-0.004 0.014-0.003 0.018-0.008 2.843-4.452 6.188-7.261 10.773-7.94 3.465-0.516 8.195-0.089 10.318 0.329 1.811 0.357 3.824 0.694 5.851 1.905 0.014 1.055-0.059 1.372-0.312 2.473C138.255 84.21 138.08 88.478 128.399 89.719z" fill="#daa488" stroke-width="none" opacity="1"></path><path id="SvgjsPath3459" d="M139.703 80.234c-1.34-6.85-9.928-11.261-19.186-9.862 -9.257 1.403-15.669 8.091-14.328 14.94 1.339 6.849 9.93 11.26 19.186 9.859C134.633 93.766 141.043 87.082 139.703 80.234zM138.725 83.09c-0.47 1.121-0.645 5.388-10.325 6.629 -4.835 0.619-9.423-0.261-14.194-0.87 -1.339-0.618-2.41-1.43-2.154-2.438 0.006-0.027 0.02-0.053 0.025-0.08 0.006-0.004 0.014-0.003 0.018-0.008 2.843-4.452 6.188-7.261 10.773-7.94 3.465-0.516 8.195-0.089 10.318 0.329 1.811 0.357 3.727 0.764 5.851 1.905C139.05 81.672 138.978 81.989 138.725 83.09z" fill="url(#SvgjsRadialGradient3460)" opacity="1"></path><path id="SvgjsPath3464" d="M138.725 83.09c0.253-1.101 0.325-1.417 0.312-2.473 -2.092-1.175-4.04-1.547-5.851-1.905 -2.123-0.418-6.854-0.845-10.318-0.329 -4.586 0.679-7.931 3.488-10.773 7.94 -0.004 0.005-0.012 0.004-0.018 0.008 -0.006 0.027-0.02 0.053-0.025 0.08 -0.256 1.007 0.815 1.819 2.154 2.438 4.771 0.609 9.359 1.489 14.194 0.87C138.08 88.478 138.255 84.21 138.725 83.09z" fill="url(#SvgjsRadialGradient3465)" opacity="1"></path><path id="SvgjsPath3468" d="M123.273 75.748c-3.295 0.539-6.506 2.054-9.48 3.945 -0.637 0.404-1.367 0.865-2.521 1.451 0.828-0.188 1.594-0.617 2.309-1.011 -0.736 0.698-1.422 1.529-1.982 2.334 2.521-3.159 7.297-5.538 11.359-6.349 3.902-0.779 10.989-0.264 16.252 2.042C134.391 75.449 127.362 75.08 123.273 75.748z" fill="#ac5f38" stroke-width="none" opacity="1"></path><path id="SvgjsPath3469" d="M133.314 77.563c1.672 0.405 5.119 1.761 5.994 2.928 0.205 1.132-1.094 0.052-1.402-0.117 -3.764-2.064-10.201-2.548-15.033-1.843 -4.588 0.665-7.936 3.407-10.781 7.747C111.018 87.854 114.57 73.019 133.314 77.563zM128.395 89.57c-4.844 0.61-9.439-0.25-14.219-0.839 -1.134-0.137 8.038 2.215 14.633 1.613 9.284-0.849 10.861-5.44 10.145-7.503C138.131 83.023 139.376 88.19 128.395 89.57z" fill="#582311" stroke-width="none" opacity="1"></path></g></g><g id="svga-group-facehighlight-single" ><path id="SvgjsPath2885" d="M141 113.974c0.035 22.622-18.292 40.994-40.938 41.025 -22.642 0.037-41.028-18.273-41.063-40.9 -0.035-22.62 18.292-41.064 40.937-41.1C122.579 72.964 140.967 91.349 141 113.974z" fill="url(#SvgjsRadialGradient2886)" opacity="1"></path><path id="SvgjsPath2889" d="M137.5 53.999c0 20.711-16.789 37.5-37.499 37.5 -20.711 0-37.501-16.789-37.501-37.5s16.79-37.5 37.501-37.5C120.711 16.499 137.5 33.288 137.5 53.999z" fill="url(#SvgjsRadialGradient2890)" opacity="1"></path></g><g id="svga-group-eyebrows-left" ><path id="SvgjsPath2910" d="M54 74.189c9.954-9.974 16.761-5.915 30.589-3.264 0.845 0.162 6.32 1.539 5.31 3.469 -0.483 0.924-2.036 0.814-2.903 0.798C73.308 74.936 66.652 65.197 54 74.189z" fill="#2a232b" stroke-width="none" opacity="1"></path></g><g id="svga-group-eyebrows-right" ><path id="SvgjsPath2911" d="M146 74.189c-9.953-9.974-16.761-5.915-30.589-3.264 -0.846 0.162-6.32 1.539-5.311 3.469 0.483 0.924 2.036 0.814 2.903 0.798C126.691 74.936 133.348 65.197 146 74.189z" fill="#2a232b" stroke-width="none" opacity="1"></path></g><g id="svga-group-nose-single" ><path id="SvgjsPath3627" d="M96.831 88.524c0 0-1.399 11.117-2.026 13.281 -1.379 4.752-6.168 11.417-5.239 14.429 1.859 6.022 7.537 4.493 10.524 4.471 2.763-0.022 8.072 1.552 9.162-2.37 0.352-1.266-0.441-4.466-0.441-4.466s-2.644 3.112-8.875 2.767c-1.778-0.099-4.671-2.096-4.704-4.912 -0.043-3.817 1.802-7.035 2.205-10.824C97.741 98.022 96.831 88.524 96.831 88.524z" fill="#cb8b6a" stroke-width="none" opacity="1"></path><path id="SvgjsPath3628" d="M105.194 118.969c1.075 0 1.366 0.326 1.366 0.729 0 0.404-0.335 1.026-1.366 0.73 -1.134-0.323-3.113-0.175-3.113-0.175S104.117 118.969 105.194 118.969zM94.922 118.969c-1.077 0.001-1.366 0.328-1.366 0.733 -0.001 0.403 0.323 0.983 1.366 0.729 1.15-0.282 3.112-0.175 3.112-0.175S95.999 118.973 94.922 118.969zM108.81 113.869c0 0 1.489 1.933 1.18 3.975 -0.301 1.983-3.31 2.861-3.31 2.861s2.089-1.516 2.342-3.356C109.14 116.486 108.81 113.869 108.81 113.869zM90.427 111.883c0 0-1.086 2.704-0.772 4.352 0.571 2.976 3.704 4.164 3.704 4.164s-1.955-2.039-2.65-3.842C89.948 114.587 90.427 111.883 90.427 111.883z" fill="#ac5f38" stroke-width="none" opacity="1"></path><path id="SvgjsPath3629" d="M105.141 115.311c1.043-0.889 1.148-1.396 0.932-1.729 -0.215-0.334-0.841-0.545-1.714 0.528 -0.963 1.18-3.056 2.054-3.056 2.054S104.098 116.198 105.141 115.311z" fill="#e9bfa9" stroke-width="none" opacity="1"></path></g><g id="svga-group-beardwrap" ><g id="svga-group-beard-single" ><path id="SvgjsPath3502" d="M100.58 180.78c-4.91-0.01-6.91-2.7-9.68-6.42 -1.61-2.17-3.44-4.63-6.24-7.19 -0.62-0.58-2.7-2.54-3.23-3.59 -6.28-0.92-7.41-2.74-9.9-6.71 -1.05-1.68-2.35-3.76-4.38-6.31 -2.62-3.2-4.81-5.69-6.75-7.89C51.02 132 49.06 129.78 43.66 96.53c-0.52-3.09-1.1-7.04-1.23-8.14 0.13-0.05 0.26-0.11 0.38-0.18 1.29 0.18 3.04 0.39 5.92 0.59 0.84 5.28 2.39 8.4 3.89 11.42 1.03 2.07 2.1 4.21 2.89 7 2.21 7.51 6.37 11.3 10.39 14.97 4.5 4.1 9.14 8.34 10.96 17.81l0.01 0.06 0.06 0.02c3.98 1.11 5.6 3.71 7.8 7.88l0.08 0.16 0.09-0.15c0.51-0.86 0.81-1.48 1.04-1.97 0.79-1.68 0.89-1.89 7-5.27 1.62-0.91 2.43-1.52 3.26-2.23l0.35 0.15c0.74 0.28 1.63 0.43 2.6 0.43 1.11 0 2.22-0.21 2.92-0.54 0.94 1.32 1.99 1.72 3.31 2.24 1.86 0.72 4.17 1.62 7.43 5.51l0.05 0.06 0.07-0.04c2.71-1.44 4.42-3.58 6.23-5.84 1.88-2.35 3.83-4.78 7.13-6.87 2.4-5.56 5.62-8.89 8.73-12.12 3.87-4.01 7.87-8.16 10.04-16.49 0.54-2.04 3.24-8.84 4.85-12.9 0.6-1.52 1.05-2.65 1.19-3.03 2.54-0.01 4.77-0.4 6.83-0.81 -1.15 4.21-1.19 8.14-1.24 12.31 -0.06 5.81-0.13 11.81-3.2 19.28 -7.67 19.92-11.78 23.46-16.13 27.22 -2.36 2.04-4.8 4.14-7.85 9.09 -2.63 4.66-4.68 5.67-9.52 6.33l-0.06 0.01 -0.02 0.06c-1.23 4.21-5.54 7.24-10.1 10.45 -2.95 2.07-6 4.22-8.28 6.77 -0.05 0.05-0.14 0.16-0.25 0.28C101.08 180.29 100.74 180.68 100.58 180.78z" fill="#2a232b" stroke-width="none" opacity="1"></path><path id="SvgjsPath3503" d="M140.72 136.54c-6 10-13.72 11.46-17.72 22.46 0-4-1-6-2-10 -6.63 24.87-13 17-19 26 1-3-1-6-1-9 0 3-2 6-2 9 0-5-3-8-5-12 1 5 3 8 3 13 -6.79-11.51-13.63-13.22-19-23 0 2 0 5 0 7 -14.01-27.71-24.45-22.31-35.16-68.01 0.22 1.45 0.48 3.1 0.72 4.56 6.52 40.1 8.18 35.27 23.53 54.07 6.79 8.53 5.35 11.75 14.26 13 0.5 1.01 2.42 2.86 3.25 3.62 7.75 7.1 8.23 13.64 16.01 13.64 0.24-0.12 0.83-0.86 1.02-1.05 5.75-6.43 16.35-10.23 18.4-17.25 4.76-0.66 6.91-1.64 9.59-6.38 8.48-13.78 12.02-5.26 23.98-36.32 3.45-8.39 3.12-16.28 3.23-23.56C153.13 113.88 147.41 124.98 140.72 136.54z" fill="#1b141c" stroke-width="none" opacity="1"></path><path id="SvgjsPath3504" d="M151.04 88.97c-0.34 1-5.3 13.14-6.06 16 -3.9 14.93-13.38 16.08-18.73 28.55 -6.57 4.15-7.92 9.81-13.36 12.7 -5.62-6.73-8.55-4.59-10.78-7.81 -1.18 0.61-3.74 0.83-5.5 0.14H96.6c-0.14-0.06-0.27-0.11-0.41-0.17 -0.79 0.69-1.6 1.3-3.29 2.26 -7.9 4.37-5.79 3.45-8.08 7.28 -2.05-3.88-3.71-6.77-7.86-7.93 -3.43-17.94-16.67-16.88-21.35-32.79 -1.93-6.85-5.38-9.5-6.79-18.49 0 0-0.25-0.14-0.24 0.9 0.7 6.03 5.15 20.02 9.57 26.51 6.02 8.93 14.69 10.58 18.27 24.27 6.22 1.96 7.03 6.94 8.09 8.65 -0.71 2.95-0.14 7.2 2.58 9.92 0 0-0.49-0.67-0.6-0.9 -1.12-1.83-1.57-4.15-1.47-6.27 0.38-7.05 4.17-7.78 8.27-10.49 0.49-0.32 2.82-2 3.04-2.47 1.69 0.9 3.98 0.76 5.7 0.14 0.02 0.02 0.04 0.05 0.05 0.08 2.84 3.35 5.17 1.8 10.08 7.59 2.21 2.31 1.4 4.1 1.4 8.75 0.56-2.52 1.29-6.51-0.08-8.39 5.1-2.37 9.09-10.91 13.56-13.37 5.79-11.59 15.38-13.26 19.21-28.33 1.85-7.04 3.47-8.37 5.27-16.02C151.57 88.85 151.04 88.97 151.04 88.97zM157.71 88.27c-3.27 7.61-1.03 17.75-6.32 30.79 -12.34 32.03-16.09 21.52-23.57 37.21 -1.46 3.42-3.99 4.78-7.55 5.55 0.83-3.41 0.65-3.05 0.7-5.88 -1.51 13.1-10.32 13.24-18.38 21.27 -1.08 1.19-2.37 2.87-2.37 2.87 -5.74 0-9.13-8.55-13.13-12.02 -3.77-3.27-6.42-4.43-7.13-9.37 0 1-0.04 2.38 1 4.29 -7.32-1.44-6.42-5.56-12.28-13.71 -8.01-10.92-15.07-14.81-18.32-29.52 -1.04-4.71-7.52-30.22-7.58-31.63 -0.01 0-0.01 0.01-0.02 0.01 -0.14 0.08-0.29 0.14-0.44 0.2 0.11 1 0.71 5.07 1.24 8.22 6.52 40.1 8.18 35.27 23.53 54.07 6.79 8.53 5.35 11.75 14.26 13 0.5 1.01 2.42 2.86 3.25 3.62 7.75 7.1 8.23 13.64 16.01 13.64 0.24-0.12 0.83-0.86 1.02-1.05 5.75-6.43 16.35-10.23 18.4-17.25 4.76-0.66 6.91-1.64 9.59-6.38 8.48-13.78 12.02-5.26 23.98-36.32 5.31-12.91 1.65-21.63 4.48-31.75L157.71 88.27z" fill="#000000" stroke-width="none" opacity="1"></path></g></g><g id="svga-group-mustache-single" ><path id="SvgjsPath3378" d="M119.74 133.21c-13.47 0-17.96-3.72-19.72-4.18 -1.62 0.36-6.35 4.73-21.51 4.11 -0.45-0.02-1.06-0.04-1.43-0.12 -3.19-2.37-3-6.36 3.14-7.91 5.72-1.15 11.97-5.01 19.95-5.01 6.74 0 10.37 2.45 19.62 5.03 2.47 0.68 4.8 1.33 5.19 4.67 -0.14 1.27-0.84 2.35-2.14 3.26C122.26 133.15 121.11 133.21 119.74 133.21L119.74 133.21z" fill="#2a232b" stroke-width="none" opacity="1"></path><path id="SvgjsPath3379" d="M95.87 127.4c1.2-1.24 2.17-3.14 3-4C98.01 124.7 97.55 126.24 95.87 127.4zM96.04 123.24c-2.23 3.02-2.41 3.13-5.17 6.17C93.77 127.2 94.58 125.92 96.04 123.24zM92.04 124.9c-3.69 2.96-3.23 2.22-6.33 4.83C89.83 127.39 90.67 126.39 92.04 124.9zM87.7 125.9c-4.01 2.49-1.09 0.78-7.33 5.17C83.02 129.87 82.89 130.04 87.7 125.9zM83.04 127.4c-1.97 0.88-3.9 1.9-5.67 3.17C79.36 129.73 81.24 128.63 83.04 127.4zM101.13 123.4c0.89 1.35 1.36 2.87 3 4C102.88 126.12 102.08 124.38 101.13 123.4zM103.96 123.24c1.75 3.24 2.61 4.23 5.17 6.17C106.36 126.36 106.19 126.25 103.96 123.24zM107.96 124.9c1.03 1.13 1.74 2.24 6.33 4.83C112.22 127.99 110.79 127.17 107.96 124.9zM112.3 125.9c4.51 3.88 4.58 3.92 7.33 5.17C115.76 128.35 115.09 127.64 112.3 125.9zM116.96 127.4c1.73 1.19 3.65 2.32 5.67 3.17C120.84 129.29 118.9 128.26 116.96 127.4z" fill="#1b141c" stroke-width="none" opacity="1"></path><path id="SvgjsPath3380" d="M119.41 124.92c-9.65-2.3-15.75-7.96-30.02-2.83 -1.96 0.66-7.64 2.62-9.19 2.93 -0.75 0.19-1.58 0.37-2.43 0.77 -2.68 1.31-4.41 4.61-0.71 7.33 0.42 0.09 1.15 0.11 1.61 0.13 14.96 0.57 19.76-3.71 21.32-4.12 0.67 0.17 0.86 0.31 1.5 0.65 6.34 3.58 18.76 3.81 21.42 3.36 1.22-0.85 2.03-1.92 2.18-3.35C124.67 126.2 122.08 125.67 119.41 124.92zM101.41 128.78c-2.68-1.07-2.49 0.84-10.97 2.27 -6.92 1.03-12.4 1.13-13.4 1.06 -0.69-0.79-1.29-1.77-0.89-2.74 1.39-2.77 0.41-1.39 13.75-5.91 14.77-5.36 10.59-2.05 29.55 3 3.89 1 3.69 1.54 4.41 2.94 0.38 0.96-0.23 1.94-0.91 2.71C120.3 132.27 108.64 131.64 101.41 128.78z" fill="#0c080c" stroke-width="none" opacity="1"></path></g><g id="svga-group-hair-front" ><path id="SvgjsPath3359" d="M152.983 98.604c-4.563-12.435 0.717-31.506-8.205-45.615 -4.064-6.762-7.597-11.409-6.95-19.276l-0.368-0.124c-0.862 1.352-1.994 2.82-2.745 3.76 0.427-1.091 1.123-2.762 1.753-4.023l-0.332-0.218c-2.585 3.073-4.805 4.649-7.859 5.5 3.3-2.32 6.949-6.357 8.546-8.595l-0.271-0.284c-11.319 7.283-24.164 7.382-35.496 7.471 -10.227 0.076-16.579-0.155-23.953-4.441 -5.321 1.764-9.511 1.539-14.116-1.635 -14.414 27.947-8.01 13.957-16.627 65.764 -5.004-6.67-6.458-10.912-7.642-17.267 -0.313-2.027-0.619-5.154-0.429-7.215l-0.063-0.065c-4.452-9.77-6.553-15.333-5.495-34.712 0.785-8.04 2.533-14.076 7.574-20.398 -0.665-3.435-0.729-6.898-0.277-10.21 -2.64-4.827-4.457-9.795-5.165-11.57 3.688 2.823 3.993 2.986 7.07 3.957 0.704-1.937 1.73-3.861 2.387-4.865 0.297 2.238 0.533 3.75 1.203 5.925 0.228 0.055 1.313 0.349 1.66 0.442 -0.199-1.324-0.381-1.938-0.353-3.125 0.571 1.302 1.053 1.604 2.71 3.626 1.834 0.385 1.394 0.328 1.944 0.328 -2.669-4.183-4.47-7.885-4.927-13.515 3.653 2.081 8.764 3.27 14.101 3.27 12.539 0 25.369-9.412 43.169-9.412 15.425 0 28.771 8.558 34.683 18.303 -0.006-2.514-0.113-4.594 0.794-7.178 0 0 0.105 3.705 0.105 6.592l0.396 0.037c0.62-3.301 1.928-6.115 4.088-8.773 -1.918 5.158-1.188 2.404-3.334 8.702l0.348 0.187c1.431-1.839 2.603-3.139 6.019-4.862 -2.468 2.473-4.355 3.89-5.522 5.639l0.301 0.259c1.456-1.32 2.971-1.82 4.512-0.613 -2.481-0.902-3.946 0.679-5.648 2.675 6.619 1.091 10.21 4.91 14.864 10.015 10.712 12.352 13.533 24.411 7.723 41.506 2.435 5.263 2.06 17.125-3.375 26.686C159.779 86.867 155.941 93.789 152.983 98.604z" fill="#2a232b" stroke-width="none" opacity="1"></path><path id="SvgjsPath3360" d="M62.299 30.371c0.359 0.334 0.718 0.668 1.074 1.004 -0.129-0.085-0.258-0.164-0.388-0.253 -14.414 27.947-8.01 13.957-16.627 65.764 -5.004-6.67-6.458-10.912-7.642-17.267 -0.313-2.027-0.619-5.154-0.429-7.215l-0.063-0.065c-4.452-9.77-6.553-15.333-5.495-34.712 0.785-8.04 2.533-14.076 7.574-20.398 -0.654-3.378-0.72-6.782-0.293-10.044 0.597 0.874 1.223 1.725 1.863 2.565C42.304 12.374 42.669 14.933 42 17c-9.539 29.478-4 43 2 64 -2.464-15.931-7.142-36.185 5.619-48C44.168 46.096 45.673 52.034 47 61 47.917 49.082 52.195 37.996 62.299 30.371zM155.432 13.06c-0.376-0.412-0.742-0.812-1.106-1.207 -0.382 0.255-0.774 0.489-1.159 0.737 14.956 30.661 0.594 27.717 4.017 41.409C161.183 63.999 156 70 156 80c0-15-0.681-25.439-8.96-37.175 -2.796-3.963-3.581-17.423-5.465-24.074C118.373 33 84.002 35.981 47.916 7.183c17 6 51.649 1.35 63.543-6.316 -13.558 2.461-41.862 2.608-54.59-2.631 30.5-2.37 30.131-12.16 56.131-14C100.5-20.431 73.196-8.51 60.658-8.51c-5.336 0-10.447-1.188-14.101-3.27 0.457 5.63 2.258 9.333 4.927 13.515 -0.551 0-0.11 0.057-1.944-0.328 -1.658-2.022-2.14-2.325-2.71-3.626 -0.029 1.187 0.154 1.801 0.353 3.125 -0.347-0.093-1.433-0.387-1.66-0.442 -0.67-2.175-0.906-3.687-1.203-5.925 -0.656 1.004-1.683 2.928-2.387 4.865 -3.078-0.971-3.382-1.134-7.07-3.957 0.708 1.775 2.525 6.744 5.165 11.57 -0.007 0.055-0.009 0.111-0.016 0.166 6.305 9.235 15.169 16.471 23.363 24.192 4.454 2.924 8.558 3.096 13.729 1.382 7.374 4.286 13.727 4.517 23.953 4.441 11.332-0.088 24.177-0.188 35.496-7.471l0.271 0.284c-1.597 2.238-5.246 6.275-8.546 8.595 3.055-0.852 5.274-2.428 7.859-5.5l0.332 0.218c-0.63 1.262-1.326 2.932-1.753 4.023 0.751-0.94 1.883-2.408 2.745-3.76l0.368 0.124c-0.646 7.868 2.886 12.514 6.95 19.276 8.922 14.109 3.643 33.181 8.205 45.615 2.958-4.815 6.796-11.736 6.796-17.352 5.435-9.561 5.81-21.423 3.375-26.686C168.965 37.471 166.144 25.412 155.432 13.06zM156.165 38.709c-0.33-9.524-6.633-21.612-6.633-21.612 -2.946-5.204-5.579-7.687-9.996-8.695 12.426 0.619 17.306 19.179 16.769 28.875C156.254 38.177 156.165 38.709 156.165 38.709zM127.907-1.507c3.283 2.663 4.067 3.423 7.296 7.909 -16.653-29.889-49.333-7.27-59.667-8C86.041 0.573 109.793-14.79 127.907-1.507zM136.369 11.485C116.408 28.033 85.929 21.023 61 13.21 85.827 24.581 117.435 30.734 136.369 11.485zM57.869 29.485c-6.539 3.425-9.616 12.05-9.9 17.75C49.19 42.316 52.854 33.291 57.869 29.485zM49.619 24.735c-9.359 5.699-11.174 18.771-10.25 29.75C40.353 44.343 42.181 31.11 49.619 24.735zM117.064 12.34c-1.006 0.215-7.259 1.072-10.672 1.195 -2.661 0.155-13.037 0.328-22.391-0.048 9.655 2.069 15.454 2.454 22.496 2.045 8.106-0.293 15.36-1.898 21.371-6.796C123.633 11.067 121.828 11.399 117.064 12.34zM150.609 38.885c0 0-0.256-0.441-0.588-1.102 -0.911-1.527-1.945-5.681-5.938-18.736 2.966 24.195 7.817 19.782 9.991 32.283C154.075 46.834 153.761 44.529 150.609 38.885z" fill="#1b141c" stroke-width="none" opacity="1"></path><path id="SvgjsPath3361" d="M157.853 68.131c0.364-3.246 0.217-1.758 0.257-3.61 0.306-6.244-3.426-11.479-1.154-18.987 1.854-5.453 2.925-6.308 2.113-15.801 -0.119-1.37-0.474-4.774-1.102-5.998 0.856 1.489 1.422 4.245 1.725 5.934 1.687 9.543 0.268 10.992-1.521 16.267C155.781 53.906 160.368 57.422 157.853 68.131zM141.575 18.751c1.117 30.37 7.276 23.316 12.717 41.752C150.598 38.757 147.181 56.786 141.575 18.751zM48.369 34.235c-9.19 11.563-8.262 19.899-6 37C42.165 53.925 40.055 47.355 48.369 34.235zM41.772 17.714c-5.274 16.319-6.429 23.684-3.897 41.285C37.406 41.353 37.518 37.458 41.772 17.714zM61.952 30.641C52.322 37.56 47.295 50.217 47 61 48.482 50.695 54.012 37.697 61.952 30.641zM128.855 24.594c-12.051 4.437-31.667 5.625-45.988 1.322C71.706 22.661 54.279 11.723 44.905 4.845c8.498 6.765 23.471 16.807 33.926 20.776 10.863 4.059 27.887 5.567 41.081 2.245 9.248-2.324 14.041-4.52 21.663-9.114C138.182 20.612 133.184 23.242 128.855 24.594zM102.813-11.594c12.167-2.285 26.509 5.558 34.057 14.83 -7.897-11.318-20.837-16.949-28.562-17.083C95.629-14.067 82.513-3.204 56.869-2.265 80.982-1.203 92.573-9.936 102.813-11.594zM112.369 1.235c-17.289 6.143-30.64 7.613-48.807 8.58C82.325 10.97 95.739 9.15 112.369 1.235zM130.536 4.738c-10.662 5.027-15.33 5.851-37.337 7.191C106.996 12.486 119.885 11.769 130.536 4.738zM95.248 20.023c10.644 1.237 29.289-0.105 38.621-9.788 -11.27 9.494-32.119 9.154-48.38 8.508C91.713 19.714 90.59 19.552 95.248 20.023zM140.869 10.735c7.629 2.809 9.489 16.193 12.5 27C152.022 28.156 149.721 12.813 140.869 10.735z" fill="#3a353a" stroke-width="none" opacity="1"></path><path id="SvgjsPath3362" d="M155.579 12.925c-4.348-4.769-8.252-8.97-14.63-10.02 2.094-2.463 3.566-3.379 6.25-1.85 -1.59-1.871-3.417-2.226-5.63-0.22 1.271-1.905 3.468-3.46 6.3-6.43 -4.231 1.985-5.503 3.34-7.12 5.42 2.285-6.703 1.3-3.128 3.72-9.75 -2.529 2.836-4.146 5.92-4.859 9.72 0-5.903-0.185-5.14-0.07-7.72 -1.387 3.089-1.229 5.81-1.229 7.59 -2.233-3.682-5.514-6.8-9.051-9.35 -25.054-18.289-50.039-1.456-63.58 0.58 -5.489 0.927-13.714 0.338-19.35-3.04 0.398 5.764 2.183 9.592 4.79 13.68 -0.001 0-1.47-0.31-1.47-0.31 -2.019-2.434-2.214-2.356-2.96-4.33 -0.191 1.763 0.101 2.74 0.25 3.74 -0.498-0.13-0.957-0.268-1.26-0.34 -0.743-2.414-0.958-4.25-1.23-6.29 -0.614 0.785-1.922 3.18-2.64 5.15 -2.999-0.948-3.214-1.099-7.43-4.33 0.5 1 2.309 6.461 5.44 12.23 -0.47 3.534-0.328 7.06 0.27 10.12 -5.025 6.312-6.77 12.346-7.56 20.44 -1.041 19.059 0.867 24.611 5.53 34.82 0.01 0.01 0.01 0.03 0.02 0.04 -0.177 1.971 0.119 5.102 0.44 7.18 1.179 6.332 2.625 10.693 7.91 17.65 0.02 0.02 0.03 0.05 0.05 0.07 3.395-20.368 3.045-20.867 3.77-25.89 3.572-25.712 3.417-21.872 12.81-40.07 3.813 2.628 8.035 3.552 14.02 1.56 4.342 2.524 8.776 4.45 21.06 4.45 12.171-0.152 26.176 0.412 38.52-7.53 -1.87 2.622-6.118 7.154-9.46 9.18 3.479-0.736 5.975-2.137 9.09-5.84 -0.957 1.915-2.083 4.814-2.17 5.16 0.15-0.18 2.15-2.57 3.51-4.7 -0.653 7.945 2.894 12.597 6.98 19.4 8.956 14.163 3.511 33.521 8.33 45.96 3.09-4.996 7.04-12.086 7.04-17.75 5.21-9.086 5.956-21.111 3.39-26.75C168.587 38.924 167.533 26.708 155.579 12.925zM46.789-2.465c0.488 1.389 0.595 1.359 2.49 3.61 -0.94-0.195-1.565-0.332-2.13-0.46C46.93-0.371 46.789-1.375 46.789-2.465zM44.279-5.125c0.094 1.532 0.459 3.542 0.99 5.31 -2.865-0.737-1.8-0.504-2.8-0.8C43.292-3.089 43.602-3.715 44.279-5.125zM45.999 95.095c-4.216-7.605-5.323-10.191-6.49-17.89 -0.114-0.886-0.472-3.446-0.49-4.67 -6.07-13.88-8.352-40.236 1.21-54.74 0-0.01 0-0.01 0-0.01s0.399-0.624 1.12-1.52c-0.267-1.344-0.531-4.18-0.44-7.28 0.74 1.32 1.58 2.52 2.33 3.67 0-0.003 0.59 0.781 0.59 0.8 4.551 5.79 8.754 10.604 18.92 17.75C50.544 50.979 51.301 44.3 45.999 95.095zM163.639 48.206c-0.356 2.358-1.123 5.583-1.539 6.99 2.78 7.068-0.257 20.417-3.061 26.38 -1.226 7.093-2.545 8.521-6.01 15.59 -2.477-11 2.583-30.519-6.76-45.08 -6.059-10.044-8.657-11.36-7.23-23.77 0 0 0.061-0.675 0.08-0.85 -12.628 7.721-26.576 8.594-44.97 8.2 -5.317 0-12.5-0.668-16.98-3.44 -9.081 2.583-12.45-1.437-20.01-7.34 -8.163-6.937-13.709-12.994-20.55-27.27 3.843 3.118 11.537 4.689 16.39 5.5 -3.273-4.363-5.199-8.349-6.07-14 3.48 2.32 11.82 4.603 19.17 3.79 13.534-1.271 32.484-15.167 55.77-4.63 10.804 4.767 16.286 11.476 17.57 15 0.01 0 0.02 0.01 0.04 0.01 0.06 0.02 0.12 0.03 0.189 0.04 0.017 0.018 0.332 0.09 0.36 0.09 6.976 2.325 7.443 2.759 14.2 10.64C158.026 18.715 167.168 28.016 163.639 48.206z" fill="#000000" stroke-width="none" opacity="1"></path></g><g id="svga-group-glasses-single" ><path id="SvgjsPath3508" d="M148.74 83.98c-0.07 5.17-2.36 10.62-5.3 14.98 -2.86 4.24-10.31 5.75-15.82 5.75 -4.5 0-8.51-0.92-11.02-2.53 -4.73-3.04-9.81-10.61-10.93-17.83C115.84 78.24 136.81 78.24 148.74 83.98zM51.26 83.28c-0.14 5.38 2.23 11.13 5.3 15.68 2.86 4.24 10.31 5.75 15.82 5.75 4.5 0 8.51-0.92 11.02-2.53 4.59-2.95 9.5-10.16 10.81-17.18C83.4 78.66 62.6 77.97 51.26 83.28z" fill="#ffffff" stroke-width="none" opacity="0.2"></path><path id="SvgjsPath3509" d="M148.74 83.98c-11.93-5.73-32.9-5.74-43.06 0.36 -0.17-1.1-0.25-2.19-0.23-3.26 0.22-8.25 12.02-11.18 22.06-11.18 7.08 0 15.44 1.47 18.14 4.74C147.91 77.39 148.79 80.62 148.74 83.98zM72.49 69.9c-7.08 0-15.44 1.47-18.14 4.74 -2.1 2.55-3.01 5.53-3.09 8.64 11.35-5.31 32.14-4.62 42.94 1.71 0.25-1.32 0.38-2.63 0.34-3.91C94.32 72.83 82.52 69.9 72.49 69.9z" fill="#ffffff" stroke-width="none" opacity="0.4"></path><path id="SvgjsPath3510" d="M154.48 72.86c-0.6-2.41-28.01-7.28-42.24-2.39 -3.44 1.18-5.82 2.23-7.24 3.72l0-0.02c-0.5 0.88-1.75 1.18-2.64 0.85 -1.6-0.61-3.22-0.58-4.72 0 -0.88 0.34-2.14 0.03-2.64-0.85l0 0.02c-1.42-1.49-3.79-2.53-7.24-3.72 -14.23-4.89-41.64-0.01-42.24 2.39 -0.23 0.95-0.54 6.06-0.52 7.89 0.02 1.83 1.16 1.69 2.87 2.49 0.66 0.31 2.04 2.67 2.17 3.64 0.63 4.54 2.44 8.75 5.26 12.93 4.82 7.14 21.71 8.27 28.91 3.64 4.98-3.2 10.14-10.73 11.51-18.22 0.27-1.49 0.52-2.65 0.71-3.65l0.01 0.05c0.36-1.23 1.97-1.83 3.57-1.86 1.6 0.03 3.21 0.63 3.57 1.86l0.01-0.05c0.18 1 0.44 2.16 0.71 3.65 1.37 7.49 6.53 15.02 11.51 18.22 7.2 4.63 24.09 3.5 28.91-3.64 2.82-4.18 4.63-8.39 5.26-12.93 0.13-0.98 1.51-3.34 2.17-3.64 1.71-0.8 2.86-0.65 2.87-2.49C155.02 78.92 154.71 73.8 154.48 72.86zM83.12 101.75c-6.38 4.1-22.02 3.04-26.15-3.07 -4.7-6.98-7.82-16.94-2.24-23.72 5.38-6.53 38.94-7.32 39.31 6.13C94.26 88.99 88.46 98.32 83.12 101.75zM143.03 98.68c-4.13 6.12-19.77 7.17-26.15 3.07 -5.34-3.43-11.14-12.76-10.92-20.66 0.37-13.45 33.93-12.66 39.31-6.13C150.85 81.73 147.73 91.7 143.03 98.68z" fill="#26120b" stroke-width="none" opacity="1"></path><path id="SvgjsPath3511" d="M45.37 73.94c0.05-0.5 0.1-0.89 0.15-1.09 0.6-2.41 28.01-7.28 42.24-2.39 3.44 1.18 5.82 2.23 7.24 3.72l0-0.02C95 74.15 73 62.54 45.37 73.94zM153.92 82.5c0.67-0.3 1.07-0.7 1.08-1.77 0.02-1.82-0.29-6.94-0.52-7.89 -0.6-2.41-28.01-7.28-42.24-2.39 -3.28 1.13-5.59 2.14-7.03 3.52 7.52-5.95 38.17-7.14 46.39 1.02C153.3 76.69 153.84 79.91 153.92 82.5z" fill="#351d15" stroke-width="none" opacity="1"></path></g></g></g><rect id="SvgjsRect1036" width="200" height="15" x="0" y="185" fill="#ecf0f1" opacity="0.5" style="display:none;"></rect><text id="SvgjsText1037" font-family="&quot;Roboto&quot;, &quot;Helvetica Neue&quot;, Helvetica, Arial, sans-serif" style="font-size:0.84em;font-family:&quot;Roboto&quot;, &quot;Helvetica Neue&quot;, Helvetica, Arial, sans-serif;text-anchor:middle;font-weight:400;display:none;" font-size="0.84em" text-anchor="middle" font-weight="400" fill="#000000" x="100" y="185"><tspan id="SvgjsTspan1038" dy="1.2em" x="100" style="font-size:0.84em;font-family:&quot;Roboto&quot;, &quot;Helvetica Neue&quot;, Helvetica, Arial, sans-serif;text-anchor:middle;font-weight:400;">Created on AvatarMaker.com</tspan></text></g><defs id="SvgjsDefs1001"><radialGradient id="SvgjsRadialGradient2886" cx="100" cy="114" r="41" gradientUnits="userSpaceOnUse" class="svga-on-canvas-facehighlight-gradient-single-0"><stop id="SvgjsStop2887" stop-opacity="0.5" stop-color="#e9bfa9" offset="0" ></stop><stop id="SvgjsStop2888" stop-opacity="0" stop-color="#daa488" offset="0.9" ></stop></radialGradient><radialGradient id="SvgjsRadialGradient2890" cx="100" cy="54" r="37" gradientUnits="userSpaceOnUse" class="svga-on-canvas-facehighlight-gradient-single-1"><stop id="SvgjsStop2891" stop-opacity="0.5" stop-color="#e9bfa9" offset="0" ></stop><stop id="SvgjsStop2892" stop-opacity="0" stop-color="#daa488" offset="0.9" ></stop></radialGradient><linearGradient id="SvgjsLinearGradient3015" x1="100" y1="142" x2="100" y2="139" gradientUnits="userSpaceOnUse" class="svga-on-canvas-mouth-gradient-single-0"><stop id="SvgjsStop3016" stop-opacity="1" stop-color="#d29779" offset="0.1" ></stop><stop id="SvgjsStop3017" stop-opacity="1" stop-color="#cb8b6a" offset="1" ></stop></linearGradient><linearGradient id="SvgjsLinearGradient3398" x1="100" y1="170" x2="100" y2="122" gradientUnits="userSpaceOnUse" class="svga-on-canvas-chinshadow-gradient-single-0"><stop id="SvgjsStop3399" stop-opacity="0.8" stop-color="#cb8b6a" offset="0" ></stop><stop id="SvgjsStop3400" stop-opacity="1" stop-color="#ac5f38" offset="0.7" ></stop></linearGradient><radialGradient id="SvgjsRadialGradient3413" cx="125.903" cy="85.096" r="13.25" gradientTransform="matrix(-1.0996 0.0423 0.0635 0.9207 206.5488 0.5932)" gradientUnits="userSpaceOnUse" class="svga-on-canvas-eyesback-gradient-left-0"><stop id="SvgjsStop3414" stop-opacity="1" stop-color="#ffffff" offset="0" ></stop><stop id="SvgjsStop3415" stop-opacity="1" stop-color="#fdfefe" offset="0.544" ></stop><stop id="SvgjsStop3416" stop-opacity="1" stop-color="#f6f8f9" offset="0.74" ></stop><stop id="SvgjsStop3417" stop-opacity="1" stop-color="#eaeff2" offset="0.879" ></stop><stop id="SvgjsStop3418" stop-opacity="1" stop-color="#d9e3e8" offset="0.992" ></stop><stop id="SvgjsStop3419" stop-opacity="1" stop-color="#d8e2e7" offset="1" ></stop></radialGradient><radialGradient id="SvgjsRadialGradient3421" cx="125.541" cy="85.113" r="13.249" gradientTransform="matrix(1.0996 0.0423 -0.0635 0.9207 -6.5488 0.5932)" gradientUnits="userSpaceOnUse" class="svga-on-canvas-eyesback-gradient-right-0"><stop id="SvgjsStop3422" stop-opacity="1" stop-color="#ffffff" offset="0" ></stop><stop id="SvgjsStop3423" stop-opacity="1" stop-color="#fdfefe" offset="0.544" ></stop><stop id="SvgjsStop3424" stop-opacity="1" stop-color="#f6f8f9" offset="0.74" ></stop><stop id="SvgjsStop3425" stop-opacity="1" stop-color="#eaeff2" offset="0.879" ></stop><stop id="SvgjsStop3426" stop-opacity="1" stop-color="#d9e3e8" offset="0.992" ></stop><stop id="SvgjsStop3427" stop-opacity="1" stop-color="#d8e2e7" offset="1" ></stop></radialGradient><radialGradient id="SvgjsRadialGradient3429" cx="125.903" cy="85.096" r="13.25" gradientTransform="matrix(-1.0996 0.0423 0.0635 0.9207 206.5488 0.5932)" gradientUnits="userSpaceOnUse" class="svga-on-canvas-eyesfront-gradient-left-0"><stop id="SvgjsStop3430" stop-opacity="1" stop-color="#ffffff" offset="0" ></stop><stop id="SvgjsStop3431" stop-opacity="1" stop-color="#fdfefe" offset="0.544" ></stop><stop id="SvgjsStop3432" stop-opacity="1" stop-color="#f6f8f9" offset="0.74" ></stop><stop id="SvgjsStop3433" stop-opacity="1" stop-color="#eaeff2" offset="0.879" ></stop><stop id="SvgjsStop3434" stop-opacity="1" stop-color="#d9e3e8" offset="0.992" ></stop><stop id="SvgjsStop3435" stop-opacity="1" stop-color="#d8e2e7" offset="1" ></stop></radialGradient><radialGradient id="SvgjsRadialGradient3439" cx="123.371" cy="81.442" fx="136.805" fy="80.36" r="17.038" gradientTransform="matrix(0.9884 0.1367 0.1336 -0.7354 -56.0677 125.3)" gradientUnits="userSpaceOnUse" class="svga-on-canvas-eyesfront-gradient-left-3"><stop id="SvgjsStop3440" stop-opacity="1" stop-color="#cb8b6a" offset="0" ></stop><stop id="SvgjsStop3441" stop-opacity="0.3" stop-color="#cb8b6a" offset="0.7" ></stop><stop id="SvgjsStop3442" stop-opacity="0" stop-color="#daa488" offset="1" ></stop></radialGradient><radialGradient id="SvgjsRadialGradient3444" cx="78.965" cy="81.143" r="26.237" gradientTransform="matrix(0.7183 -0.06 0.0803 0.6143 8.7915 49.2595)" gradientUnits="userSpaceOnUse" class="svga-on-canvas-eyesfront-gradient-left-4"><stop id="SvgjsStop3445" stop-opacity="0" stop-color="#000000" offset="0.95" ></stop><stop id="SvgjsStop3446" stop-opacity="0.2" stop-color="#000000" offset="1" ></stop></radialGradient><radialGradient id="SvgjsRadialGradient3450" cx="125.541" cy="85.113" r="13.249" gradientTransform="matrix(1.0996 0.0423 -0.0635 0.9207 -6.5488 0.5932)" gradientUnits="userSpaceOnUse" class="svga-on-canvas-eyesfront-gradient-right-0"><stop id="SvgjsStop3451" stop-opacity="1" stop-color="#ffffff" offset="0" ></stop><stop id="SvgjsStop3452" stop-opacity="1" stop-color="#fdfefe" offset="0.544" ></stop><stop id="SvgjsStop3453" stop-opacity="1" stop-color="#f6f8f9" offset="0.74" ></stop><stop id="SvgjsStop3454" stop-opacity="1" stop-color="#eaeff2" offset="0.879" ></stop><stop id="SvgjsStop3455" stop-opacity="1" stop-color="#d9e3e8" offset="0.992" ></stop><stop id="SvgjsStop3456" stop-opacity="1" stop-color="#d8e2e7" offset="1" ></stop></radialGradient><radialGradient id="SvgjsRadialGradient3460" cx="122.972" cy="81.425" fx="136.406" fy="80.344" r="17.037" gradientTransform="matrix(-0.9884 0.1367 -0.1336 -0.7354 255.271 125.3424)" gradientUnits="userSpaceOnUse" class="svga-on-canvas-eyesfront-gradient-right-3"><stop id="SvgjsStop3461" stop-opacity="1" stop-color="#cb8b6a" offset="0" ></stop><stop id="SvgjsStop3462" stop-opacity="0.3" stop-color="#cb8b6a" offset="0.7" ></stop><stop id="SvgjsStop3463" stop-opacity="0" stop-color="#daa488" offset="1" ></stop></radialGradient><radialGradient id="SvgjsRadialGradient3465" cx="79.515" cy="81.186" r="26.237" gradientTransform="matrix(-0.7183 -0.06 -0.0803 0.6143 191.2076 49.2665)" gradientUnits="userSpaceOnUse" class="svga-on-canvas-eyesfront-gradient-right-4"><stop id="SvgjsStop3466" stop-opacity="0" stop-color="#000000" offset="0.95" ></stop><stop id="SvgjsStop3467" stop-opacity="0.2" stop-color="#000000" offset="1" ></stop></radialGradient><linearGradient id="SvgjsLinearGradient3473" x1="130" y1="69" x2="130" y2="109" gradientUnits="userSpaceOnUse" class="svga-on-canvas-glasses-gradient-single-0"><stop id="SvgjsStop3474" stop-opacity="1" stop-color="#000000" offset="0" ></stop><stop id="SvgjsStop3475" stop-opacity="0.8" stop-color="#000000" offset="1" ></stop></linearGradient><linearGradient id="SvgjsLinearGradient3477" x1="130" y1="69" x2="130" y2="109" gradientTransform="matrix(-1 0 0 1 200 0)" gradientUnits="userSpaceOnUse" class="svga-on-canvas-glasses-gradient-single-1"><stop id="SvgjsStop3478" stop-opacity="1" stop-color="#000000" offset="0" ></stop><stop id="SvgjsStop3479" stop-opacity="0.8" stop-color="#000000" offset="1" ></stop></linearGradient><radialGradient id="SvgjsRadialGradient3514" cx="-568.659" cy="-521.042" r="59.751" gradientTransform="matrix(0.096 -0.0248 0.0245 0.0961 141.2814 119.9893)" gradientUnits="userSpaceOnUse" class="svga-on-canvas-eyesiris-gradient-left-1"><stop id="SvgjsStop3515" stop-opacity="1" stop-color="#ffffff" offset="0" ></stop><stop id="SvgjsStop3516" stop-opacity="0" stop-color="#ffffff" offset="1" ></stop></radialGradient><radialGradient id="SvgjsRadialGradient3518" cx="-582.838" cy="-519.099" r="59.745" gradientTransform="matrix(0.0991 8.856319e-004 -0.0011 0.0991 131.1134 135.9855)" gradientUnits="userSpaceOnUse" class="svga-on-canvas-eyesiris-gradient-left-2"><stop id="SvgjsStop3519" stop-opacity="1" stop-color="#ffffff" offset="0" ></stop><stop id="SvgjsStop3520" stop-opacity="0" stop-color="#ffffff" offset="1" ></stop></radialGradient><linearGradient id="SvgjsLinearGradient3524" x1="122.67" y1="88.268" x2="123.606" y2="87.152" gradientTransform="matrix(1 0 0 1 -52 0)" gradientUnits="userSpaceOnUse" class="svga-on-canvas-eyesiris-gradient-left-5"><stop id="SvgjsStop3525" stop-opacity="1" stop-color="#ffffff" offset="0" ></stop><stop id="SvgjsStop3526" stop-opacity="0" stop-color="#ffffff" offset="1" ></stop></linearGradient><linearGradient id="SvgjsLinearGradient3528" x1="127.212" y1="82.296" x2="126.463" y2="83.189" gradientTransform="matrix(1 0 0 1 -52 0)" gradientUnits="userSpaceOnUse" class="svga-on-canvas-eyesiris-gradient-left-6"><stop id="SvgjsStop3529" stop-opacity="1" stop-color="#ffffff" offset="0" ></stop><stop id="SvgjsStop3530" stop-opacity="0" stop-color="#ffffff" offset="1" ></stop></linearGradient><linearGradient id="SvgjsLinearGradient3532" x1="129.636" y1="79.822" x2="127.91" y2="81.879" gradientTransform="matrix(1 0 0 1 -52 0)" gradientUnits="userSpaceOnUse" class="svga-on-canvas-eyesiris-gradient-left-7"><stop id="SvgjsStop3533" stop-opacity="1" stop-color="#ffffff" offset="0" ></stop><stop id="SvgjsStop3534" stop-opacity="0" stop-color="#ffffff" offset="1" ></stop></linearGradient><radialGradient id="SvgjsRadialGradient3537" cx="-568.654" cy="-521.042" r="59.752" gradientTransform="matrix(0.096 -0.0248 0.0245 0.0961 193.2804 119.9894)" gradientUnits="userSpaceOnUse" class="svga-on-canvas-eyesiris-gradient-right-1"><stop id="SvgjsStop3538" stop-opacity="1" stop-color="#ffffff" offset="0" ></stop><stop id="SvgjsStop3539" stop-opacity="0" stop-color="#ffffff" offset="1" ></stop></radialGradient><radialGradient id="SvgjsRadialGradient3541" cx="-582.833" cy="-519.102" r="59.747" gradientTransform="matrix(0.0991 8.856319e-004 -0.0011 0.0991 183.1126 135.9856)" gradientUnits="userSpaceOnUse" class="svga-on-canvas-eyesiris-gradient-right-2"><stop id="SvgjsStop3542" stop-opacity="1" stop-color="#ffffff" offset="0" ></stop><stop id="SvgjsStop3543" stop-opacity="0" stop-color="#ffffff" offset="1" ></stop></radialGradient><linearGradient id="SvgjsLinearGradient3547" x1="122.67" y1="88.268" x2="123.606" y2="87.152" gradientUnits="userSpaceOnUse" class="svga-on-canvas-eyesiris-gradient-right-5"><stop id="SvgjsStop3548" stop-opacity="1" stop-color="#ffffff" offset="0" ></stop><stop id="SvgjsStop3549" stop-opacity="0" stop-color="#ffffff" offset="1" ></stop></linearGradient><linearGradient id="SvgjsLinearGradient3551" x1="127.212" y1="82.296" x2="126.463" y2="83.189" gradientUnits="userSpaceOnUse" class="svga-on-canvas-eyesiris-gradient-right-6"><stop id="SvgjsStop3552" stop-opacity="1" stop-color="#ffffff" offset="0" ></stop><stop id="SvgjsStop3553" stop-opacity="0" stop-color="#ffffff" offset="1" ></stop></linearGradient><linearGradient id="SvgjsLinearGradient3555" x1="129.636" y1="79.822" x2="127.91" y2="81.879" gradientUnits="userSpaceOnUse" class="svga-on-canvas-eyesiris-gradient-right-7"><stop id="SvgjsStop3556" stop-opacity="1" stop-color="#ffffff" offset="0" ></stop><stop id="SvgjsStop3557" stop-opacity="0" stop-color="#ffffff" offset="1" ></stop></linearGradient></defs></svg>