<svg width="1972" height="879" viewBox="0 0 1972 879" fill="none" xmlns="http://www.w3.org/2000/svg">
<g clip-path="url(#clip0)">
<path d="M1656.89 661.713C1579.86 638.873 1486.48 617.874 1409.77 636.244C1333.07 654.614 1303.59 679.408 1219.35 622.385C1200.94 609.906 1185.92 605.185 1172.4 604.997C1171.54 597.07 1168.36 583.027 1156.71 582.147C1144.79 581.257 1158.85 596.747 1167.28 605.13C1121.93 608.147 1091.23 659.637 995.998 627.141C981.372 622.15 966.264 622.446 952.016 625.525C943.056 605.743 916.473 551.943 894.482 557.538C872.491 563.133 926.926 609.702 947.567 626.589C945.112 627.223 942.688 627.939 940.295 628.717C927.795 619.512 904.353 604.599 890.954 611.134C877.862 617.527 910.684 626.681 932.054 631.693C903.575 642.975 882.341 661.652 882.341 661.652L1656.89 661.713Z" fill="#93D19C"/>
<path d="M1431.11 560.872C1431.11 560.872 1461.67 588.959 1504.67 575.765C1547.67 562.571 1571.78 548.67 1610.63 556.433C1649.47 564.196 1688.1 595.72 1712.64 583.957C1737.17 572.194 1817.11 547.943 1854.11 580.796C1891.12 613.649 1886.76 647.065 1886.76 647.065H1426.86L1431.11 560.872Z" fill="#C3DEEC"/>
<path d="M448.046 631.314C449.959 631.396 462.795 631.682 488.479 632.276C680.137 636.664 775.966 638.884 835.638 635.16C863.868 633.421 886.861 631.069 923.366 631.918C951.811 632.593 963.993 634.669 992.673 632.941C1002.75 632.358 1012.76 631.441 1028.41 631.918C1051.44 632.542 1064.59 635.508 1073.91 638.413C1075.66 638.955 1101.87 647.25 1100.98 652.487C1100.35 656.21 1086.54 655.903 1059.83 657.908C1042.82 659.176 1025.91 661.652 1008.93 663.319C945.081 669.599 949.847 670.264 926.619 671.982C886.319 674.969 888.324 671.757 834.564 674.15C791.943 676.042 787.299 678.241 749.004 679.561C713.297 680.829 690.825 679.878 671.023 679.561C553.323 677.72 516.893 698.279 385.111 694.73C357.617 693.983 363.785 693.237 338.542 692.562C142.159 687.308 74.346 739.478 30.977 702.308C-5.75395 670.826 -11.296 587.008 22.314 557.189C74.161 511.193 189.22 620.318 448.046 631.314V631.314Z" fill="#E7F0F9"/>
<path d="M1760.64 59.6167C1774.39 54.2408 1781.18 38.7336 1775.81 24.9806C1770.43 11.2275 1754.93 4.43647 1741.17 9.8124C1727.42 15.1883 1720.63 30.6955 1726 44.4485C1731.38 58.2016 1746.89 64.9926 1760.64 59.6167Z" fill="#FDDA83"/>
<path opacity="0.8" d="M1717.99 667.676L1719.59 669.804L1652.74 674.804V679.039L1741.41 670.447C1746.53 669.567 1748.22 668.847 1748.87 667.675L1717.99 667.676Z" fill="url(#paint0_linear)"/>
<path d="M1742.15 478.595C1741.28 478.861 1740.43 479.086 1739.6 479.28C1736.01 480.136 1732.31 480.48 1728.62 480.303L1727.99 466.761C1731.63 466.771 1735.25 467.401 1738.69 468.623C1740.08 469.089 1741.43 469.685 1742.71 470.403C1743.4 473.123 1743.21 475.994 1742.15 478.595V478.595Z" fill="url(#paint1_linear)"/>
<path d="M1733.41 669.539C1741.93 669.539 1748.84 668.705 1748.84 667.677C1748.84 666.649 1741.93 665.815 1733.41 665.815C1724.88 665.815 1717.97 666.649 1717.97 667.677C1717.97 668.705 1724.88 669.539 1733.41 669.539Z" fill="url(#paint2_linear)"/>
<path d="M1770.65 547.739V547.667C1770.03 546.941 1764.51 540.507 1758.38 532.509C1753.74 526.581 1749.47 520.367 1745.61 513.904C1737.5 499.748 1731.4 479.261 1731.22 478.616L1734.29 480.324L1762.56 531.724L1764.1 534.342L1770.65 547.739Z" fill="url(#paint3_linear)"/>
<path d="M1728.13 666.868L1729.54 473.686L1732.15 472.886L1738.69 666.201C1738.69 666.201 1735.13 670.223 1728.13 666.868V666.868Z" fill="url(#paint4_linear)"/>
<path d="M1728.32 634.434C1731.41 634.855 1734.53 634.855 1737.61 634.434L1738.64 666.254C1738.64 666.254 1734.61 670.069 1728.08 666.868L1728.32 634.434Z" fill="url(#paint5_linear)"/>
<path d="M1770.65 547.739V547.667C1770.14 546.941 1765.75 540.65 1760.64 532.918C1755.52 525.186 1749.8 516.225 1746.39 509.71C1742.97 503.195 1737.56 491.217 1734.25 483.771C1732.53 479.946 1731.39 477.348 1731.39 477.348L1731.82 473.205C1735.74 477.685 1739.33 482.196 1742.61 486.635C1752.31 499.788 1760.51 513.975 1767.08 528.935C1769.7 534.778 1771.94 540.784 1773.79 546.916C1774.01 548.424 1772.57 549.641 1770.65 547.739V547.739Z" fill="url(#paint6_linear)"/>
<path d="M1729.89 475.926L1725.18 478.726L1678.72 506.346L1678.55 506.446L1666.21 512.583C1666.48 512.348 1671.26 508.195 1677.61 503.193C1683.87 498.152 1690.46 493.529 1697.33 489.354C1710.4 481.766 1729.3 476.1 1729.89 475.926V475.926Z" fill="url(#paint7_linear)"/>
<path d="M1732.53 476.601C1717.24 490.049 1700.06 501.187 1681.54 509.659C1676.79 511.867 1671.9 513.777 1666.91 515.377C1665.58 515.622 1664.45 514.293 1666.21 512.523C1666.51 512.308 1671.22 508.994 1677.46 504.831C1684.91 499.819 1694.55 493.58 1701.26 490.02C1707.18 486.9 1718.33 481.838 1725.19 478.769L1731.08 476.14L1732.53 476.601Z" fill="url(#paint8_linear)"/>
<path d="M1768.98 414.699L1762.1 426.625L1761.94 426.85L1731.39 471.404L1728.32 475.864C1728.52 475.291 1735.43 456.798 1743.76 444.279C1748.1 438.036 1752.85 432.087 1757.98 426.472C1763.57 420.182 1768.36 415.313 1768.92 414.75L1768.98 414.699Z" fill="url(#paint9_linear)"/>
<path d="M1771.81 415.6C1769.98 420.227 1767.88 424.739 1765.52 429.112L1765.3 429.501C1755.63 447.549 1743.34 464.071 1728.85 478.535L1728.43 477.052L1731.39 471.406C1734.91 464.768 1740.73 453.916 1744.25 448.188C1748.18 441.806 1754.94 432.723 1760.39 425.624C1764.87 419.804 1768.48 415.334 1768.93 414.751V414.7C1770.87 413.062 1772.13 414.27 1771.81 415.6V415.6Z" fill="url(#paint10_linear)"/>
<path opacity="0.59" d="M1732.69 489.038L1730.15 491.084L1733.92 668.197L1728.13 666.864L1729.53 481.2L1732.39 479.87L1732.69 489.038Z" fill="url(#paint11_linear)"/>
<path d="M1681.54 509.659C1676.79 511.867 1671.9 513.777 1666.91 515.377C1665.58 515.622 1664.45 514.293 1666.21 512.523C1666.48 512.288 1671.26 508.135 1677.61 503.133L1677.41 504.833L1678.69 506.333L1681.54 509.659Z" fill="url(#paint12_linear)"/>
<path opacity="0.59" d="M1720.37 479.209L1717.91 482.009L1721.76 485.435L1727.99 480.566L1723.61 477.948L1720.37 479.209Z" fill="url(#paint13_linear)"/>
<path opacity="0.59" d="M1739.31 482.39L1736.31 488.527L1734.27 488.282L1732.42 482.871L1732.34 479.884C1733.16 478.632 1733.69 477.208 1733.88 475.721L1739.31 482.39Z" fill="url(#paint14_linear)"/>
<path opacity="0.59" d="M1735.56 459.029L1733.85 466.71L1734.68 471.81L1734.21 472.966L1732.15 466.481L1735.56 459.029Z" fill="url(#paint15_linear)"/>
<path d="M1730.7 481.163C1730.09 481.241 1729.46 481.203 1728.87 481.051C1724.62 480.028 1719.34 474.413 1720.37 471.334C1721.07 469.288 1724.39 466.956 1727.53 466.134C1729.74 465.572 1731.86 465.715 1732.95 467.157C1735.62 470.689 1733.82 480.693 1730.7 481.163V481.163Z" fill="url(#paint16_linear)"/>
<path d="M1724.87 472.428C1724.87 474.065 1723.91 475.404 1722.72 475.404C1721.53 475.404 1720.57 474.064 1720.57 472.428C1720.57 470.792 1721.53 469.441 1722.72 469.441C1723.91 469.441 1724.87 470.781 1724.87 472.428Z" fill="url(#paint17_linear)"/>
<path d="M1773.74 546.92C1773.58 546.449 1772.16 542.348 1766.25 530.227C1759.93 517.309 1742.28 486.481 1742.28 486.481L1742.56 486.655C1752.26 499.808 1760.46 513.995 1767.03 528.955C1769.65 534.793 1771.89 540.794 1773.74 546.92V546.92Z" fill="#FFFBE7"/>
<path d="M1768 424.201C1768 424.201 1752.57 453.301 1737.73 469.093C1737.74 469.091 1757.07 450.017 1768 424.201V424.201Z" fill="#FFFBE7"/>
<path opacity="0.2" d="M1728.87 481.05C1724.62 480.027 1719.35 474.412 1720.37 471.333C1721.07 469.287 1724.39 466.955 1727.53 466.133C1727.69 466.133 1730.18 466.604 1730.98 471.82C1731.36 475.048 1730.61 478.308 1728.87 481.05V481.05Z" fill="url(#paint18_linear)"/>
<path d="M1676.06 512.053C1684.07 509.312 1691.83 505.869 1699.23 501.763C1706.44 497.6 1713.21 492.738 1719.47 487.249C1719.47 487.249 1691.87 506.632 1676.06 512.053V512.053Z" fill="#FFFBE7"/>
<path d="M1770.65 547.739V547.667C1770.03 546.941 1764.51 540.507 1758.38 532.509L1758.28 532.151L1760.66 532.918L1762.6 531.718L1767.1 528.936C1769.73 534.795 1771.98 540.818 1773.83 546.968C1774.02 548.424 1772.57 549.641 1770.65 547.739V547.739Z" fill="url(#paint19_linear)"/>
<path d="M1771.81 415.6C1769.98 420.227 1767.88 424.739 1765.52 429.112L1765.3 429.501L1761.98 426.852L1760.42 425.625L1758.02 426.474C1763.62 420.184 1768.4 415.315 1768.97 414.752V414.701C1770.87 413.062 1772.13 414.27 1771.81 415.6V415.6Z" fill="url(#paint20_linear)"/>
<path d="M1742.16 478.595C1741.29 478.861 1740.43 479.086 1739.6 479.28L1741.48 478.145C1742.74 475.301 1742.21 470.985 1742.21 470.985C1741.41 469.747 1739.14 468.785 1738.73 468.643C1740.12 469.109 1741.47 469.705 1742.75 470.423C1743.43 473.141 1743.22 476.004 1742.16 478.595V478.595Z" fill="#FFFBE7"/>
<path d="M1429.39 558.018C1429.39 552.788 1431.47 547.772 1435.17 544.074C1438.87 540.376 1443.88 538.298 1449.11 538.298V527.18C1449.1 521.24 1451.29 515.506 1455.27 511.093C1459.25 506.68 1464.72 503.903 1470.63 503.301C1476.54 502.699 1482.46 504.316 1487.25 507.837C1492.03 511.357 1495.34 516.531 1496.52 522.352C1499.28 521.085 1502.3 520.492 1505.34 520.62C1508.37 520.748 1511.34 521.594 1513.98 523.088L1514.05 523.139L1514.89 523.639C1517.77 525.4 1520.14 527.868 1521.79 530.809C1523.44 533.749 1524.31 537.063 1524.31 540.434V638.401C1524.3 639.102 1524.15 639.793 1523.87 640.434C1523.59 641.075 1523.18 641.652 1522.66 642.13C1522.15 642.608 1521.55 642.977 1520.89 643.215C1520.23 643.453 1519.53 643.555 1518.83 643.515H1434.88C1434.18 643.555 1433.48 643.453 1432.82 643.215C1432.16 642.977 1431.55 642.608 1431.04 642.13C1430.53 641.652 1430.12 641.075 1429.84 640.434C1429.55 639.793 1429.4 639.102 1429.39 638.401L1429.39 558.018Z" fill="url(#paint21_linear)"/>
<path d="M1442.51 577.882H1444.36C1444.35 583.008 1445.54 588.065 1447.82 592.652C1451.25 592.477 1454.49 590.991 1456.85 588.501C1459.22 586.012 1460.54 582.709 1460.55 579.273H1461.48C1461.49 582.884 1460.14 586.366 1457.69 589.021C1455.24 591.676 1451.88 593.309 1448.28 593.593C1451.02 598.709 1455.04 603.024 1459.95 606.11C1464.86 609.197 1470.49 610.949 1476.29 611.193V561.149C1472.04 560.911 1468.04 559.059 1465.12 555.971C1462.19 552.883 1460.56 548.792 1460.55 544.538H1461.48C1461.48 548.547 1463.02 552.402 1465.77 555.316C1468.53 558.23 1472.29 559.983 1476.29 560.218V542.257H1479.06V571.377C1486.58 571.246 1493.74 568.174 1499.02 562.82C1504.3 557.466 1507.27 550.256 1507.29 542.738H1509.14C1509.13 550.754 1505.97 558.445 1500.34 564.155C1494.72 569.866 1487.08 573.139 1479.06 573.27V630.641C1488.3 630.51 1497.12 626.75 1503.61 620.172C1510.1 613.595 1513.75 604.728 1513.76 595.486H1515.61C1515.6 605.22 1511.76 614.559 1504.92 621.484C1498.08 628.409 1488.79 632.363 1479.06 632.492V654.227H1476.28V613.007C1467.21 612.641 1458.63 608.781 1452.33 602.236C1446.04 595.69 1442.51 586.965 1442.5 577.883L1442.51 577.882Z" fill="#251130"/>
<path d="M1692.09 550.92C1691.88 547.729 1690.85 544.646 1689.09 541.975C1687.33 539.305 1684.9 537.139 1682.05 535.69C1679.54 534.585 1676.82 534.01 1674.07 534.002C1671.3 533.992 1668.56 534.567 1666.02 535.69C1663.17 537.139 1660.75 539.305 1658.99 541.975C1657.23 544.646 1656.2 547.729 1655.99 550.92C1652.12 551.32 1648.53 553.142 1645.92 556.035C1643.31 558.927 1641.86 562.685 1641.87 566.58V652.119C1641.86 653.314 1642.3 654.466 1643.12 655.34C1643.93 656.214 1645.05 656.743 1646.24 656.819H1701.83C1703.03 656.743 1704.15 656.213 1704.96 655.338C1705.77 654.463 1706.22 653.309 1706.21 652.114V566.524C1706.2 562.638 1704.75 558.893 1702.14 556.012C1699.53 553.13 1695.95 551.315 1692.09 550.916L1692.09 550.92Z" fill="url(#paint22_radial)"/>
<path d="M1692.19 600.159C1692.17 604.375 1690.57 608.43 1687.7 611.526C1684.84 614.621 1680.92 616.532 1676.72 616.882V567.285H1674.14V602.133C1670.13 601.829 1666.38 600.025 1663.65 597.08C1660.91 594.135 1659.39 590.267 1659.39 586.248H1657.7C1657.7 590.712 1659.41 595.007 1662.46 598.267C1665.51 601.526 1669.68 603.507 1674.13 603.81V635.81C1670.36 635.57 1666.68 634.498 1663.37 632.669C1660.06 630.841 1657.19 628.302 1654.98 625.234C1658.03 624.867 1660.84 623.394 1662.88 621.095C1664.92 618.796 1666.05 615.829 1666.05 612.755H1665.21C1665.21 615.701 1664.1 618.539 1662.1 620.703C1660.1 622.867 1657.36 624.2 1654.42 624.436C1651.61 620.234 1650.11 615.287 1650.12 610.229H1648.44C1648.45 617.192 1651.11 623.889 1655.89 628.956C1660.66 634.023 1667.19 637.078 1674.14 637.498V662.486H1676.73V618.508C1681.38 618.154 1685.72 616.063 1688.9 612.651C1692.07 609.24 1693.85 604.758 1693.87 600.097L1692.19 600.159Z" fill="#251130"/>
<path d="M1559.46 567.286C1559.43 563.497 1560.16 559.742 1561.59 556.235C1563.03 552.728 1565.14 549.54 1567.81 546.853C1570.49 544.166 1573.66 542.034 1577.16 540.579C1580.66 539.124 1584.41 538.375 1588.2 538.375C1591.99 538.375 1595.74 539.124 1599.24 540.579C1602.73 542.034 1605.91 544.166 1608.58 546.853C1611.25 549.54 1613.37 552.728 1614.8 556.235C1616.23 559.742 1616.96 563.497 1616.94 567.286V627.766C1616.94 628.815 1616.73 629.854 1616.33 630.823C1615.93 631.792 1615.34 632.673 1614.6 633.415C1613.86 634.157 1612.98 634.745 1612.01 635.146C1611.04 635.548 1610 635.754 1608.95 635.754H1567.44C1566.4 635.754 1565.36 635.548 1564.39 635.146C1563.42 634.745 1562.54 634.157 1561.8 633.415C1561.05 632.673 1560.46 631.792 1560.06 630.823C1559.66 629.854 1559.46 628.815 1559.46 627.766L1559.46 567.286Z" fill="url(#paint23_linear)"/>
<path d="M1571.9 577.401H1573.59C1573.6 580.937 1575 584.328 1577.49 586.838C1579.98 589.349 1583.36 590.776 1586.89 590.81V563.071H1589.42V580.459C1591.46 580.233 1593.36 579.261 1594.73 577.729C1596.11 576.198 1596.87 574.213 1596.88 572.154H1597.71C1597.72 574.446 1596.88 576.66 1595.35 578.363C1593.81 580.065 1591.7 581.134 1589.41 581.359V624.052C1594.74 623.594 1599.73 621.226 1603.45 617.383C1601.08 617.278 1598.84 616.262 1597.2 614.547C1595.56 612.832 1594.64 610.55 1594.65 608.177H1595.5C1595.5 610.393 1596.38 612.519 1597.94 614.086C1599.51 615.654 1601.64 616.534 1603.85 616.534V616.934C1607.65 612.832 1609.76 607.447 1609.75 601.857H1611.43C1611.42 607.873 1609.16 613.666 1605.08 618.087C1601 622.508 1595.4 625.232 1589.41 625.72V641.891H1586.88V592.491C1582.9 592.459 1579.09 590.856 1576.29 588.031C1573.48 585.205 1571.9 581.386 1571.9 577.404L1571.9 577.401Z" fill="#251130"/>
<path d="M1323.76 465.256C1323.52 465.256 1323.29 465.304 1323.08 465.399C1322.86 465.494 1322.67 465.632 1322.5 465.807C1322.34 465.982 1322.21 466.19 1322.12 466.418C1322.03 466.647 1321.98 466.892 1321.98 467.139V476.668H1325.54V467.128C1325.53 466.629 1325.35 466.152 1325.01 465.801C1324.68 465.45 1324.23 465.254 1323.76 465.256V465.256Z" fill="#52646D"/>
<path d="M1323.76 465.256C1323.52 465.256 1323.29 465.304 1323.08 465.399C1322.86 465.494 1322.67 465.632 1322.5 465.807C1322.34 465.982 1322.21 466.19 1322.12 466.418C1322.03 466.647 1321.98 466.892 1321.98 467.139V476.668H1325.54V467.128C1325.53 466.629 1325.35 466.152 1325.01 465.801C1324.68 465.45 1324.23 465.254 1323.76 465.256V465.256Z" fill="#52646D"/>
<path d="M1394.79 465.256C1395.26 465.256 1395.71 465.454 1396.04 465.807C1396.38 466.16 1396.57 466.639 1396.57 467.139V476.668H1393.01V467.128C1393.02 466.63 1393.21 466.154 1393.54 465.803C1393.87 465.452 1394.32 465.256 1394.79 465.256Z" fill="#52646D"/>
<path d="M1396.56 476.668H1376.77C1375.74 476.668 1374.72 476.431 1373.79 475.973C1372.85 475.515 1372.02 474.846 1371.35 474.014L1368.51 470.46C1367.84 469.626 1367.01 468.956 1366.08 468.497C1365.14 468.038 1364.12 467.801 1363.09 467.802H1355.45C1354.42 467.802 1353.41 468.039 1352.47 468.498C1351.54 468.957 1350.71 469.627 1350.04 470.46L1347.19 474.011C1346.53 474.844 1345.7 475.513 1344.76 475.972C1343.83 476.431 1342.81 476.669 1341.78 476.669H1321.99C1321.05 476.669 1320.14 477.067 1319.47 477.774C1318.81 478.481 1318.43 479.441 1318.43 480.441C1318.43 480.932 1318.52 481.417 1318.7 481.87C1318.88 482.324 1319.14 482.736 1319.46 483.082C1319.79 483.429 1320.18 483.704 1320.6 483.891C1321.03 484.079 1321.49 484.175 1321.95 484.174H1331.36C1332.19 484.173 1332.99 484.479 1333.62 485.039L1339.74 490.417H1341.52L1346.51 498.368C1347.16 499.401 1348.04 500.248 1349.07 500.834C1350.1 501.421 1351.25 501.727 1352.42 501.728H1366.12C1367.29 501.727 1368.44 501.421 1369.48 500.835C1370.51 500.249 1371.39 499.402 1372.04 498.368L1377.03 490.417H1378.8L1384.92 485.039C1385.56 484.479 1386.36 484.173 1387.19 484.174H1396.6C1397.06 484.175 1397.52 484.079 1397.94 483.891C1398.37 483.704 1398.76 483.429 1399.09 483.082C1399.41 482.736 1399.67 482.324 1399.85 481.87C1400.02 481.417 1400.11 480.932 1400.11 480.441C1400.11 479.441 1399.74 478.482 1399.07 477.774C1398.41 477.066 1397.5 476.669 1396.56 476.668V476.668Z" fill="#52646D"/>
<path d="M1322.64 467.766L1323.76 469.093L1318.48 471.537L1306 469.655V467.772L1306.01 467.766H1322.64Z" fill="#93D19C"/>
<path d="M1324.87 467.766L1323.76 466.443L1329.03 464L1341.51 465.883V467.766H1324.87H1324.87Z" fill="#93D19C"/>
<path d="M1393.67 467.766L1394.79 469.093L1389.51 471.537L1377.03 469.653V467.766H1393.67Z" fill="#93D19C"/>
<path d="M1395.9 467.766L1394.79 466.443L1400.06 464L1412.55 465.883V467.766H1395.9Z" fill="#93D19C"/>
<path d="M1359.27 490.416L1346.84 494.187C1343.08 494.188 1339.46 495.777 1336.8 498.604C1334.14 501.432 1332.64 505.266 1332.64 509.264V528.118" fill="black"/>
<path d="M1359.27 490.416L1371.7 494.187C1375.47 494.187 1379.08 495.775 1381.75 498.602C1384.41 501.43 1385.91 505.265 1385.91 509.264V528.118" fill="black"/>
<path d="M1337.97 539.814C1344.5 543.622 1351.83 545.619 1359.28 545.619C1366.73 545.619 1374.06 543.622 1380.59 539.814" fill="black"/>
<path d="M1341.52 530.223C1346.96 533.395 1353.06 535.058 1359.27 535.058C1365.48 535.058 1371.59 533.395 1377.03 530.223" fill="black"/>
<path d="M1345.07 521.593C1349.42 524.134 1354.31 525.466 1359.28 525.466C1364.24 525.466 1369.13 524.134 1373.48 521.593" fill="black"/>
<path d="M1348.62 512.047C1351.89 513.955 1355.55 514.956 1359.28 514.956C1363 514.956 1366.67 513.955 1369.93 512.047" fill="black"/>
<path d="M95.8374 247.327L100.908 242.258L114.894 256.248L109.823 261.317L95.8374 247.327Z" fill="#3A5266"/>
<path d="M79.9191 256.18L109.796 226.303L112.212 228.718L82.3345 258.596L79.9191 256.18Z" fill="#3A5266"/>
<path d="M82.8151 237.786C82.1754 237.146 81.816 236.277 81.816 235.372C81.816 234.467 82.1754 233.599 82.8151 232.958L86.5591 229.225C86.8756 228.907 87.2517 228.655 87.666 228.483C88.0803 228.311 88.5245 228.222 88.9731 228.222C89.4217 228.222 89.8659 228.311 90.2802 228.483C90.6944 228.655 91.0706 228.907 91.3871 229.225L95.0691 232.907L86.5591 241.499L82.8151 237.786Z" fill="#5CB8C8"/>
<path d="M83.142 243.545C82.5285 242.813 82.2221 241.871 82.287 240.918C82.3519 239.965 82.7829 239.074 83.49 238.431L91.979 229.941C92.6227 229.214 93.5268 228.77 94.4956 228.705C95.4644 228.64 96.4198 228.959 97.155 229.593L108.969 241.407C109.605 242.142 109.924 243.099 109.857 244.069C109.789 245.039 109.342 245.942 108.611 246.583L100.132 255.073C99.488 255.803 98.5818 256.249 97.6106 256.314C96.6394 256.38 95.6817 256.058 94.946 255.421L83.142 243.545Z" fill="#468B95"/>
<path d="M119.586 267.543L120.989 266.14L127.578 272.729L126.175 274.131L119.586 267.543Z" fill="#468B95"/>
<path d="M125.886 259.491H127.87V273.402H125.886V259.491Z" fill="#468B95"/>
<path d="M112.968 272.41H126.889V274.394H112.968V272.41Z" fill="#468B95"/>
<path d="M105.501 251.922C101.574 255.859 99.3685 261.193 99.3685 266.753C99.3685 272.314 101.574 277.647 105.501 281.584L135.163 251.922C131.228 247.992 125.894 245.785 120.332 245.785C114.77 245.785 109.436 247.992 105.501 251.922V251.922Z" fill="#5CB8C8"/>
<path d="M45.0004 279.919L80.7291 244.19L94.3331 257.794L58.6044 293.523L45.0004 279.919Z" fill="#3A5266"/>
<path d="M59.5116 281.744L62.686 278.568L65.8685 281.75L62.6941 284.925L59.5116 281.744Z" fill="#5CB8C8"/>
<path d="M64.4578 276.817L67.6332 273.643L70.8147 276.825L67.6392 279.999L64.4578 276.817Z" fill="#5CB8C8"/>
<path d="M69.4296 271.826L72.6045 268.652L75.7865 271.833L72.6115 275.008L69.4296 271.826Z" fill="#5CB8C8"/>
<path d="M74.3605 266.913L77.5354 263.738L80.7174 266.92L77.5425 270.095L74.3605 266.913Z" fill="#5CB8C8"/>
<path d="M79.326 261.937L82.501 258.762L85.6829 261.944L82.508 265.119L79.326 261.937Z" fill="#5CB8C8"/>
<path d="M84.282 256.993L87.4569 253.818L90.6389 257L87.464 260.175L84.282 256.993Z" fill="#5CB8C8"/>
<path d="M78.3514 251.078L81.5263 247.903L84.7083 251.085L81.5334 254.26L78.3514 251.078Z" fill="#5CB8C8"/>
<path d="M73.4027 256.023L76.5782 252.849L79.7596 256.031L76.5841 259.206L73.4027 256.023Z" fill="#5CB8C8"/>
<path d="M68.4363 260.99L71.6112 257.815L74.7861 260.99L71.6112 264.165L68.4363 260.99Z" fill="#5CB8C8"/>
<path d="M63.4965 265.929L66.6714 262.754L69.8533 265.936L66.6784 269.111L63.4965 265.929Z" fill="#5CB8C8"/>
<path d="M58.5436 270.86L61.7152 267.682L64.9005 270.86L61.7289 274.039L58.5436 270.86Z" fill="#5CB8C8"/>
<path d="M53.5852 275.843L56.7601 272.668L59.935 275.843L56.7601 279.018L53.5852 275.843Z" fill="#5CB8C8"/>
<path d="M48.6263 280.789L51.8013 277.614L54.9832 280.796L51.8083 283.971L48.6263 280.789Z" fill="#5CB8C8"/>
<path d="M54.5352 286.726L57.7101 283.551L60.892 286.733L57.7171 289.908L54.5352 286.726Z" fill="#5CB8C8"/>
<path d="M124.403 275.948C123.817 275.357 123.454 274.581 123.376 273.753C123.298 272.924 123.509 272.094 123.974 271.404C124.438 270.713 125.128 270.205 125.925 269.966C126.722 269.727 127.577 269.771 128.345 270.091C129.113 270.412 129.747 270.988 130.138 271.723C130.529 272.457 130.653 273.304 130.49 274.12C130.327 274.936 129.886 275.671 129.242 276.198C128.599 276.726 127.792 277.014 126.96 277.014C126.484 277.015 126.013 276.921 125.575 276.738C125.136 276.555 124.737 276.286 124.403 275.948V275.948Z" fill="#EFC735"/>
<path d="M97.99 226.929L133.725 191.206L147.327 204.813L111.592 240.535L97.99 226.929Z" fill="#3A5266"/>
<path d="M112.553 228.702L115.728 225.527L118.903 228.703L115.727 231.877L112.553 228.702Z" fill="#5CB8C8"/>
<path d="M117.51 223.77L120.685 220.595L123.867 223.777L120.692 226.952L117.51 223.77Z" fill="#5CB8C8"/>
<path d="M122.444 218.839L125.619 215.665L128.8 218.847L125.626 222.021L122.444 218.839Z" fill="#5CB8C8"/>
<path d="M127.406 213.888L130.581 210.713L133.763 213.895L130.588 217.07L127.406 213.888Z" fill="#5CB8C8"/>
<path d="M132.362 208.898L135.537 205.723L138.719 208.905L135.544 212.08L132.362 208.898Z" fill="#5CB8C8"/>
<path d="M137.322 203.94L140.497 200.766L143.679 203.948L140.503 207.122L137.322 203.94Z" fill="#5CB8C8"/>
<path d="M131.385 198.023L134.56 194.848L137.742 198.03L134.567 201.205L131.385 198.023Z" fill="#5CB8C8"/>
<path d="M126.44 202.993L129.616 199.819L132.797 203.001L129.622 206.176L126.44 202.993Z" fill="#5CB8C8"/>
<path d="M121.477 207.967L124.652 204.792L127.834 207.974L124.659 211.149L121.477 207.967Z" fill="#5CB8C8"/>
<path d="M116.533 212.884L119.708 209.709L122.89 212.891L119.715 216.066L116.533 212.884Z" fill="#5CB8C8"/>
<path d="M111.584 217.863L114.759 214.688L117.941 217.87L114.766 221.045L111.584 217.863Z" fill="#5CB8C8"/>
<path d="M106.623 222.809L109.799 219.634L112.973 222.81L109.798 225.984L106.623 222.809Z" fill="#5CB8C8"/>
<path d="M101.673 227.734L104.848 224.559L108.029 227.741L104.855 230.916L101.673 227.734Z" fill="#5CB8C8"/>
<path d="M107.552 233.609L110.729 230.436L113.902 233.613L110.725 236.786L107.552 233.609Z" fill="#5CB8C8"/>
<path d="M105.502 251.922C101.577 255.86 99.3732 261.193 99.3732 266.753C99.3732 272.313 101.577 277.646 105.502 281.584L120.313 266.763L105.502 251.922Z" fill="#62C2D1"/>
<path d="M100.131 255.036L104.376 250.791L87.735 234.146L83.49 238.436C82.762 239.081 82.3172 239.987 82.2521 240.958C82.187 241.928 82.5067 242.886 83.142 243.622L94.942 255.385C95.6778 256.022 96.6354 256.343 97.6067 256.278C98.5779 256.213 99.4841 255.767 100.128 255.037L100.131 255.036Z" fill="#50959F"/>
<path opacity="0.75" d="M457.443 686.4C457.443 687.484 437.252 688.364 412.336 688.364C387.42 688.364 367.229 687.484 367.229 686.4C367.229 685.316 387.42 684.436 412.336 684.436C437.252 684.436 457.443 685.319 457.443 686.4Z" fill="url(#paint24_linear)"/>
<path opacity="0.75" d="M582.027 718.173C582.027 719.666 555.433 720.873 522.703 720.873C489.973 720.873 463.287 719.686 463.287 718.173C463.287 716.66 489.881 715.462 522.662 715.462C555.443 715.462 582.027 716.67 582.027 718.173Z" fill="url(#paint25_linear)"/>
<path opacity="0.75" d="M490.597 678.478C490.597 679.235 475.705 679.849 457.334 679.849C438.963 679.849 424.072 679.235 424.072 678.478C424.072 677.721 438.964 677.107 457.334 677.107C475.704 677.107 490.597 677.751 490.597 678.478Z" fill="url(#paint26_linear)"/>
<path d="M422.476 678.324C422.474 678.008 422.535 677.694 422.655 677.401C422.774 677.108 422.951 676.842 423.174 676.618C423.397 676.394 423.662 676.216 423.954 676.094C424.246 675.973 424.56 675.91 424.876 675.91H425.684C426.34 674.342 427.442 673.001 428.854 672.054C430.266 671.107 431.925 670.596 433.625 670.584C435.325 670.572 436.991 671.059 438.416 671.986C439.841 672.913 440.962 674.238 441.64 675.797L447.634 675.705C448.274 675.705 448.888 675.959 449.341 676.412C449.794 676.865 450.048 677.479 450.048 678.119V679.891H422.476V678.324Z" fill="url(#paint27_linear)"/>
<path d="M239.451 640.336C303.551 629.289 294.991 590.984 333.02 581.769C357.333 575.878 371.693 588.397 392.692 615.655C405.992 632.921 415.192 643.66 415.192 643.66L239.451 640.336Z" fill="url(#paint28_linear)"/>
<path d="M202.496 651.618C202.496 651.618 221.071 618.478 245.396 619.327C270.596 620.217 275.928 639.303 308.638 640.561C343.128 641.891 368.105 625.219 378.958 623.756C398.852 621.097 409.817 627.556 426.274 637.902C441.749 647.639 466.074 651.618 466.074 651.618H202.496Z" fill="url(#paint29_linear)"/>
<path d="M118.756 612.484C144.214 605.324 169.713 603.534 176.188 603.534C201.83 603.534 225.713 619.009 251.806 640.234C269.338 654.496 314.201 664.116 314.201 664.116H6.96106V591.696C6.96106 591.696 14.6121 581.969 40.4891 587.267C63.5241 592.007 80.9531 623.091 118.756 612.484Z" fill="url(#paint30_linear)"/>
<path d="M511.494 715.473C511.494 714.916 511.384 714.365 511.171 713.85C510.957 713.336 510.644 712.868 510.25 712.475C509.856 712.082 509.388 711.77 508.873 711.558C508.358 711.345 507.806 711.237 507.249 711.238H505.827C504.677 708.476 502.741 706.113 500.258 704.443C497.775 702.774 494.856 701.871 491.865 701.848C488.873 701.826 485.94 702.683 483.433 704.315C480.925 705.946 478.952 708.279 477.76 711.023L467.276 710.941C466.15 710.941 465.07 711.388 464.274 712.184C463.478 712.981 463.031 714.06 463.031 715.186V718.254H511.493L511.494 715.473Z" fill="url(#paint31_linear)"/>
<path opacity="0.75" d="M190.232 672.842C190.232 673.558 173.867 674.142 153.748 674.142C133.629 674.142 117.263 673.558 117.263 672.842C117.263 672.126 133.628 671.553 153.747 671.553C173.866 671.553 190.232 672.136 190.232 672.842Z" fill="url(#paint32_linear)"/>
<path opacity="0.75" d="M1641.86 671.737C1641.86 672.596 1657.08 673.281 1675.86 673.281C1694.64 673.281 1709.81 672.637 1709.81 671.737C1709.81 670.837 1694.59 670.182 1675.82 670.182C1657.06 670.182 1641.86 670.882 1641.86 671.737Z" fill="url(#paint33_linear)"/>
<path opacity="0.75" d="M1694.2 649.01C1694.2 649.44 1702.74 649.787 1713.25 649.787C1723.76 649.787 1732.29 649.439 1732.29 649.01C1732.29 648.581 1723.77 648.222 1713.25 648.222C1702.72 648.222 1694.2 648.57 1694.2 649.01Z" fill="url(#paint34_linear)"/>
<path d="M1838.03 627.172C1801.33 620.841 1806.23 598.911 1784.45 593.633C1770.53 590.258 1762.31 597.428 1750.28 613.067C1742.67 622.948 1737.41 629.095 1737.41 629.095L1838.03 627.172Z" fill="#E4ECF7"/>
<path d="M1859.15 633.626C1859.15 633.626 1848.51 614.652 1834.6 615.143C1820.16 615.643 1817.12 626.578 1798.39 627.294C1778.64 628.051 1764.34 618.494 1758.13 617.669C1746.73 616.155 1740.46 619.848 1731.04 625.78C1722.17 631.344 1708.24 633.625 1708.24 633.625L1859.15 633.626Z" fill="#E4ECF7"/>
<path d="M1907.13 611.266C1896.39 608.32 1885.36 606.604 1874.24 606.152C1859.56 606.152 1845.89 615.02 1830.94 627.171C1820.91 635.354 1795.23 640.846 1795.23 640.846H1971.16V599.323C1971.16 599.323 1966.77 593.749 1951.96 596.786C1938.75 599.494 1928.78 617.301 1907.13 611.266V611.266Z" fill="#E4ECF7"/>
<path d="M1379.44 645.409C1428.09 645.409 1424.98 611.533 1442.71 609.733C1459.85 607.984 1455.15 638.792 1487.88 642.709C1520.61 646.626 1520.12 609.324 1548.33 614.366C1570.69 618.366 1561.7 657.233 1618.6 679.827H1377.59L1379.44 645.409Z" fill="url(#paint35_linear)"/>
<path d="M1559.57 645.409C1608.22 645.409 1605.12 611.533 1622.84 609.733C1639.98 607.984 1635.29 638.792 1668.02 642.709C1700.75 646.626 1700.25 609.324 1728.47 614.366C1750.82 618.366 1741.85 657.233 1798.75 679.827H1557.74L1559.57 645.409Z" fill="url(#paint36_linear)"/>
<path d="M1471.87 642.474C1520.53 642.474 1517.42 608.608 1535.14 606.798C1552.29 605.059 1547.59 635.857 1580.31 639.774C1613.03 643.691 1612.55 606.389 1640.76 611.431C1663.12 615.431 1654.15 654.308 1711.04 676.892H1470.03L1471.87 642.474Z" fill="url(#paint37_linear)"/>
<path d="M414.839 634.362H340.169C340.169 634.362 344.322 625.688 349.375 623.622C351.213 622.863 352.746 621.513 353.732 619.786C358.447 611.532 369.709 609.619 377.124 617.198C377.885 617.996 378.817 618.61 379.85 618.995C380.883 619.379 381.99 619.524 383.087 619.418C388.672 618.825 392.387 622.139 394.41 624.757C395.1 625.631 395.985 626.332 396.993 626.805C398.002 627.277 399.107 627.508 400.22 627.478C405.702 627.356 415.091 628.072 414.839 634.362V634.362Z" fill="#98CBDE"/>
<path d="M84.0111 544.405C94.4957 544.405 102.995 535.906 102.995 525.421C102.995 514.937 94.4957 506.437 84.0111 506.437C73.5265 506.437 65.0271 514.937 65.0271 525.421C65.0271 535.906 73.5265 544.405 84.0111 544.405Z" fill="black"/>
<path d="M84.011 535.23C89.4284 535.23 93.82 530.838 93.82 525.421C93.82 520.004 89.4284 515.612 84.011 515.612C78.5937 515.612 74.202 520.004 74.202 525.421C74.202 530.838 78.5937 535.23 84.011 535.23Z" fill="black"/>
<path d="M84.011 529.359C86.1859 529.359 87.949 527.596 87.949 525.421C87.949 523.246 86.1859 521.483 84.011 521.483C81.8361 521.483 80.073 523.246 80.073 525.421C80.073 527.596 81.8361 529.359 84.011 529.359Z" fill="black"/>
<path d="M80.3591 513.566H87.6591L90.2981 482.595H77.7101L80.3591 513.566Z" fill="#0C3948"/>
<path d="M80.3591 537.275H87.6591L89.8071 562.426L78.2421 562.038L80.3591 537.275Z" fill="#0C3948"/>
<path d="M72.1561 529.072V521.772L41.1851 519.12L44.2741 531.445L72.1561 529.072Z" fill="#0C3948"/>
<path d="M95.8661 529.072V521.772L122.143 519.123L126.828 531.714L95.8661 529.072Z" fill="#0C3948"/>
<path d="M89.811 514.456L94.976 519.621L118.736 499.594L109.836 490.685L89.811 514.456Z" fill="#0C3948"/>
<path d="M73.0471 531.22L78.2121 536.375L61.1611 556.617L53.1321 548.005L73.0471 531.22Z" fill="#0C3948"/>
<path d="M73.047 519.621L78.212 514.456L60.456 493.375L49.276 499.594L73.047 519.621Z" fill="#0C3948"/>
<path d="M89.811 536.375L94.976 531.22L118.736 551.247L109.836 560.147L89.811 536.375Z" fill="#0C3948"/>
<path d="M91.6111 542.788L111.352 692.745Z" fill="black"/>
<path d="M56.661 692.745L76.412 542.788Z" fill="black"/>
<path d="M101.021 614.561H66.9911L97.1241 584.694H70.8911L101.021 614.561Z" fill="black"/>
<path d="M108.927 674.315H58.921L105 644.448H63.135L108.927 674.315Z" fill="black"/>
<path d="M291.88 582.056H282.347V569.71H291.88V582.056Z" fill="#C5615F"/>
<path d="M292.464 569.7H281.775V566.959H292.464V569.7Z" fill="#8B2828"/>
<path d="M262.557 580.776H322.732L319.303 624.486H227.852V615.486C227.853 606.282 231.51 597.455 238.018 590.946C244.526 584.437 253.353 580.779 262.557 580.776V580.776Z" fill="#8B2828"/>
<path d="M227.872 614.386V613.527H320.132L320.06 614.386H227.872Z" fill="#C5615F"/>
<path d="M320.899 604.158L320.827 605.007H229.458C229.55 604.721 229.652 604.434 229.758 604.158H320.899Z" fill="#C5615F"/>
<path d="M321.625 594.779L321.564 595.638H234.091C234.291 595.352 234.491 595.065 234.705 594.779H321.625Z" fill="#C5615F"/>
<path d="M322.361 585.41L322.3 586.259H243.849C244.309 585.959 244.77 585.686 245.249 585.41H322.361Z" fill="#C5615F"/>
<path d="M357.434 688.266H288.004V608.434C288.004 601.11 290.914 594.086 296.093 588.907C301.272 583.728 308.296 580.818 315.62 580.818H329.756C333.383 580.818 336.974 581.532 340.325 582.92C343.675 584.308 346.72 586.342 349.284 588.906C351.849 591.471 353.883 594.515 355.271 597.866C356.659 601.216 357.373 604.807 357.373 608.434V688.266H357.434Z" fill="#C5615F"/>
<path d="M322.73 580.776C331.935 580.78 340.761 584.439 347.268 590.949C353.775 597.459 357.43 606.287 357.43 615.491V624.486H288.015V615.486C288.015 606.279 291.673 597.449 298.183 590.939C304.693 584.429 313.523 580.771 322.73 580.771V580.776Z" fill="#B03836"/>
<path d="M322.269 580.787H323.179V624.487H322.269V580.787Z" fill="white"/>
<path d="M356.268 606.562C356.391 607.012 356.503 607.472 356.606 607.922L348.27 624.482H347.247L356.268 606.562Z" fill="white"/>
<path d="M335.689 624.482H334.758L343.493 587.66L344.281 588.284L335.689 624.482Z" fill="white"/>
<path d="M297.193 624.482L288.847 607.933C288.947 607.473 289.062 607.012 289.184 606.562L298.205 624.482H297.193Z" fill="white"/>
<path d="M301.168 588.294L301.956 587.67L310.691 624.492H309.76L301.168 588.294Z" fill="white"/>
<path d="M316.613 615.706H329.245V604.854C329.245 603.178 328.579 601.57 327.394 600.384C326.208 599.199 324.6 598.533 322.924 598.533C321.249 598.536 319.644 599.203 318.461 600.388C317.278 601.573 316.613 603.179 316.613 604.854V615.706Z" fill="#D6AE76"/>
<path d="M316.828 603.258L322.965 609.201L329.102 603.258C329.154 603.443 329.195 603.631 329.225 603.821L323.354 609.549L329.317 615.359V615.707H328.969L322.996 609.887L317.033 615.707H316.685V615.359L322.648 609.549L316.777 603.821C316.783 603.633 316.8 603.445 316.828 603.258Z" fill="#0C3948"/>
<path d="M335.35 688.266H310.107V640.029H335.35V688.266Z" fill="#D6AE76"/>
<path d="M335.341 640.029L310.098 688.266Z" fill="black"/>
<path d="M310.098 640.029L335.341 688.266Z" fill="black"/>
<path d="M288.004 688.266H227.841V624.482H288.004V688.266Z" fill="#B03836"/>
<path d="M277.858 659.586H268.479V641.492H277.858V659.586Z" fill="#B3D2DD"/>
<path d="M261.636 659.586H252.257V641.492H261.636V659.586Z" fill="#B3D2DD"/>
<path d="M245.404 659.586H236.025V641.492H245.404V659.586Z" fill="#B3D2DD"/>
<path d="M205.759 587.998C195.531 587.998 200.706 603.647 195.159 605.765C189.612 607.883 184.675 611.483 188.725 620.432C190.269 623.848 181.146 627.766 183.754 638.032C186.362 648.298 194.504 654.653 206.727 654.653C218.95 654.653 223.675 636.953 220.914 631.053C218.153 625.153 218.469 620.262 218.95 616.028C219.431 611.794 216.996 608.367 214.225 604.613C211.454 600.859 215.885 588.008 205.759 587.998V587.998Z" fill="#00846C"/>
<path d="M209.175 598.267L204.859 608.373Z" fill="black"/>
<path d="M195.817 609.221C195.817 609.221 199.397 618.59 204.859 623.479Z" fill="black"/>
<path d="M215.537 623.541C212.393 628.314 208.819 632.789 204.859 636.909Z" fill="black"/>
<path d="M188.729 631.836C188.729 631.836 200.052 643.568 204.859 647.076Z" fill="black"/>
<path d="M247.531 577.922H172.864C172.864 577.922 177.017 569.259 182.069 567.182C183.904 566.424 185.437 565.079 186.426 563.357C191.141 555.092 202.413 553.19 209.818 560.757C210.58 561.554 211.512 562.169 212.544 562.555C213.577 562.941 214.683 563.089 215.781 562.987C221.366 562.394 225.081 565.698 227.104 568.316C227.793 569.192 228.677 569.895 229.686 570.369C230.694 570.843 231.8 571.075 232.914 571.047C238.404 570.916 247.786 571.633 247.531 577.922V577.922Z" fill="#98CBDE"/>
<path d="M269.062 698.207H186.509C186.509 698.207 199.209 663.84 211.364 663.84C223.519 663.84 229.55 675.971 229.55 675.971C232.179 674.84 235.121 674.664 237.867 675.473C240.613 676.282 242.989 678.024 244.586 680.4C244.586 680.4 268.203 680.011 269.062 698.207Z" fill="#00846C"/>
<path d="M207.559 676.933C208.355 681.805 209.457 686.622 210.859 691.355Z" fill="black"/>
<path d="M217.951 673.997C218.253 677.537 218.253 681.095 217.951 684.635Z" fill="black"/>
<path d="M229.315 681.576C229.315 681.576 227.73 688.176 223.689 692.576Z" fill="black"/>
<path d="M293.528 702.432C293.528 702.872 300.964 703.24 310.149 703.24C319.334 703.24 326.77 702.872 326.77 702.432C326.77 701.992 319.324 701.624 310.149 701.624C300.974 701.624 293.528 701.984 293.528 702.432Z" fill="#D07A00"/>
<path d="M260.368 708.681C260.368 709.141 265.298 709.52 271.384 709.52C277.47 709.52 282.41 709.142 282.41 708.681C282.41 708.22 277.48 707.832 271.384 707.832C265.288 707.832 260.368 708.21 260.368 708.681Z" fill="#D07A00"/>
<path d="M302.652 718.766C302.652 719.185 305.608 719.533 309.26 719.533C312.912 719.533 315.86 719.185 315.86 718.766C315.86 718.347 312.904 717.999 309.26 717.999C305.616 717.999 302.652 718.349 302.652 718.766Z" fill="#D07A00"/>
<path d="M258.291 721.017C266.51 721.017 273.173 720.683 273.173 720.27C273.173 719.858 266.51 719.523 258.291 719.523C250.072 719.523 243.409 719.858 243.409 720.27C243.409 720.683 250.072 721.017 258.291 721.017Z" fill="#D07A00"/>
<path d="M64.598 711.044L99.436 705.48" stroke="#0C3948" stroke-width="1.954" stroke-miterlimit="10"/>
<path d="M73.455 718.664L68.914 709.019C68.7411 708.649 68.6479 708.247 68.6404 707.839C68.6329 707.43 68.7112 707.025 68.8704 706.649C69.0295 706.273 69.2659 705.934 69.5642 705.656C69.8625 705.377 70.2161 705.164 70.602 705.03L73.456 704.007L73.455 718.664Z" fill="#D07A00"/>
<path d="M81.842 717.396L77.311 707.751C77.1355 707.382 77.0399 706.98 77.0304 706.572C77.021 706.164 77.098 705.758 77.2563 705.381C77.4146 705.004 77.6507 704.666 77.9492 704.387C78.2476 704.108 78.6016 703.895 78.988 703.762L81.842 702.739V717.396Z" fill="#D07A00"/>
<path d="M90.24 716.117L85.699 706.472C85.5234 706.103 85.4278 705.701 85.4184 705.293C85.4089 704.884 85.4859 704.479 85.6442 704.102C85.8026 703.725 86.0387 703.387 86.3371 703.108C86.6356 702.829 86.9896 702.616 87.376 702.483L90.24 701.46V716.117Z" fill="#D07A00"/>
<path d="M177.365 667.206C178.327 667.171 179.29 667.26 180.229 667.472C180.679 667.772 181.722 668.495 182.111 667.953C182.5 667.411 183.42 666.353 182.449 665.826C181.478 665.299 177.437 664.803 177.437 664.803L177.365 667.206Z" fill="#FF6C6C"/>
<path d="M143.213 672.391L145.586 672.575C147.427 650.075 150.168 637.533 151.416 632.685H148.971C147.611 638.004 145.013 650.4 143.213 672.391V672.391Z" fill="#23424E"/>
<path d="M136.891 674.556V645.685C136.891 645.218 136.983 644.756 137.162 644.325C137.341 643.893 137.603 643.502 137.934 643.172C138.265 642.842 138.657 642.581 139.089 642.403C139.521 642.226 139.983 642.135 140.45 642.136H155.619L162.656 676.35L176.137 680.308L180.126 700.529L145.026 699.435L136.891 674.556Z" fill="#152A33"/>
<path d="M163.107 675.204C163.107 675.204 174.46 675.46 177.693 677.741C180.926 680.022 186.072 700.529 186.072 700.529H175.237L166.155 681.894L153.492 676.34L163.107 675.204Z" fill="#283C77"/>
<path d="M144.943 673.66C144.943 673.66 143.051 676.56 143.266 682.252C143.481 687.944 163.109 688.205 163.109 688.205C163.198 689.318 163.603 690.382 164.275 691.273C165.298 692.296 168.827 701.43 168.827 701.43H178.37C178.37 701.43 172.57 682.6 170.351 680.319C168.132 678.038 158.619 677.353 158.619 677.353L152.919 675.215L144.943 673.66Z" fill="#425AA3"/>
<path d="M143.857 646.811L151.416 645.389V644.182L159.016 646.003V647.118C159.016 647.118 162.882 647.783 163.926 649.941C164.97 652.099 167.639 662.215 167.639 662.215C167.639 662.215 177.346 664.332 177.591 664.762C177.707 665.781 177.707 666.811 177.591 667.83C177.591 667.83 171.505 667.984 168.825 667.83C166.895 667.673 164.982 667.352 163.107 666.869C163.107 666.869 162.954 673.292 162.954 673.681C162.954 674.07 165.112 675.113 162.218 675.788C159.324 676.463 148.164 676.749 145.045 675.188C141.926 673.627 143.857 646.811 143.857 646.811V646.811Z" fill="#979B3F"/>
<path d="M157.036 650.431C157.281 650.777 157.448 651.172 157.524 651.589C157.6 652.006 157.584 652.435 157.476 652.845C157.19 654.42 157.66 657.519 157.292 659.902C156.924 662.285 156.842 666.52 156.371 667.757" fill="black"/>
<path d="M145.043 675.204C148.111 676.769 159.363 676.472 162.216 675.804C165.069 675.136 162.952 674.086 162.952 673.697C162.952 673.308 163.044 669.503 163.085 667.744C160.747 666.541 158.664 664.898 156.948 662.906C155.925 661.658 152.437 659.106 151.048 656.922C149.659 654.738 145.197 650.928 145.197 650.928L143.376 655.019C143.12 663.032 143.059 674.222 145.043 675.204V675.204Z" fill="#656B12"/>
<path d="M184.859 677.178C187.188 672.481 185.987 667.142 182.177 665.252C178.366 663.362 173.388 665.637 171.059 670.333C168.73 675.03 169.931 680.369 173.742 682.259C177.552 684.149 182.53 681.874 184.859 677.178Z" stroke="#196077" stroke-width="1.954" stroke-miterlimit="10"/>
<path d="M170.348 672.156L180.116 675.204L179.84 664.556" fill="black"/>
<path d="M180.127 675.204L185.906 670.468Z" fill="black"/>
<path d="M194.995 680.503H197.368C197.01 649.634 191.794 637.35 188.848 632.849H185.875C187.644 634.849 194.549 645.021 194.995 680.503V680.503Z" fill="#23424E"/>
<path d="M195.602 678.242L190.402 671.859C190.402 671.859 181.422 670.468 177.565 675.245C174.22 679.387 173.658 695.282 168.82 697.952H187.333L195.602 678.242Z" fill="#0C3948"/>
<path d="M182.009 680.329H184.392C184.024 649.46 178.531 637.176 175.585 632.675H172.619C174.409 634.68 181.589 644.836 182.009 680.329Z" fill="#23424E"/>
<path d="M129.691 672.391L132.054 672.575C133.895 650.075 136.636 637.533 137.884 632.685H135.419C134.079 638.004 131.481 650.4 129.691 672.391Z" fill="#23424E"/>
<path d="M182.623 702.217L183.186 697.348H187.84C191.706 697.348 194.488 694.883 194.488 689.533C194.488 687.692 182.009 682.077 182.009 680.328C188.146 678.569 197.27 678.16 197.27 678.16C197.27 678.16 215.21 679.387 230.962 685.903V702.268L182.623 702.217Z" fill="#D07A00"/>
<path d="M170.144 702.217L170.707 697.348H175.371C179.237 697.348 182.009 694.883 182.009 689.534V680.328C182.009 680.328 203.621 681.075 218.483 685.902V702.268L170.144 702.217Z" fill="#F68F00"/>
<path d="M242.232 711.679C242.076 711.685 241.924 711.636 241.801 711.54C241.678 711.444 241.594 711.307 241.563 711.154C241.532 711.002 241.557 710.843 241.633 710.707C241.708 710.57 241.83 710.466 241.976 710.411C242.139 710.343 242.268 710.214 242.337 710.052C242.406 709.889 242.408 709.706 242.344 709.542L240.953 706.136C240.92 706.056 240.872 705.983 240.811 705.922C240.751 705.86 240.678 705.811 240.598 705.778C240.518 705.745 240.433 705.728 240.346 705.728C240.26 705.728 240.174 705.745 240.094 705.778L239.583 705.978C239.442 706.041 239.283 706.051 239.135 706.008C238.987 705.965 238.859 705.871 238.773 705.742C238.687 705.614 238.65 705.46 238.667 705.306C238.684 705.153 238.755 705.01 238.867 704.904L239.256 704.504C239.319 704.444 239.369 704.372 239.403 704.292C239.437 704.212 239.455 704.126 239.455 704.039C239.455 703.952 239.437 703.866 239.403 703.786C239.369 703.706 239.319 703.633 239.256 703.573L236.656 700.973C236.596 700.91 236.524 700.86 236.444 700.826C236.364 700.792 236.278 700.774 236.191 700.774C236.104 700.774 236.017 700.792 235.937 700.826C235.857 700.86 235.785 700.91 235.725 700.973C235.613 701.053 235.478 701.095 235.341 701.095C235.203 701.095 235.069 701.052 234.957 700.972C234.844 700.893 234.76 700.78 234.714 700.65C234.668 700.52 234.664 700.379 234.702 700.247C234.767 700.084 234.766 699.902 234.699 699.74C234.632 699.578 234.505 699.448 234.344 699.378L230.958 697.946C230.795 697.879 230.612 697.878 230.449 697.945C230.287 698.012 230.157 698.142 230.089 698.304L229.874 698.815C229.811 698.951 229.704 699.061 229.571 699.129C229.438 699.196 229.286 699.217 229.139 699.188C228.992 699.158 228.86 699.08 228.763 698.966C228.667 698.852 228.611 698.709 228.606 698.559V697.997C228.603 697.823 228.532 697.656 228.408 697.533C228.283 697.411 228.116 697.342 227.941 697.342H224.269C224.094 697.342 223.927 697.411 223.802 697.533C223.678 697.656 223.607 697.823 223.604 697.997C223.61 698.153 223.561 698.306 223.465 698.428C223.369 698.551 223.232 698.635 223.079 698.666C222.926 698.697 222.768 698.672 222.632 698.596C222.495 698.521 222.391 698.399 222.336 698.253C222.27 698.091 222.143 697.962 221.982 697.893C221.821 697.824 221.64 697.821 221.477 697.885L218.061 699.276C217.981 699.309 217.908 699.357 217.846 699.418C217.785 699.479 217.736 699.551 217.703 699.631C217.67 699.711 217.653 699.797 217.653 699.883C217.653 699.97 217.67 700.055 217.703 700.135L217.903 700.646C217.945 700.779 217.943 700.921 217.898 701.053C217.853 701.185 217.767 701.299 217.654 701.378C217.54 701.458 217.403 701.5 217.264 701.497C217.125 701.494 216.991 701.447 216.88 701.362L216.48 700.973C216.42 700.91 216.348 700.86 216.268 700.826C216.188 700.792 216.102 700.774 216.015 700.774C215.928 700.774 215.841 700.792 215.761 700.826C215.681 700.86 215.609 700.91 215.549 700.973L212.949 703.573C212.886 703.633 212.836 703.706 212.802 703.786C212.768 703.866 212.75 703.952 212.75 704.039C212.75 704.126 212.768 704.212 212.802 704.292C212.836 704.372 212.886 704.444 212.949 704.504C213.052 704.614 213.114 704.756 213.126 704.906C213.138 705.056 213.098 705.206 213.014 705.33C212.93 705.455 212.805 705.547 212.662 705.592C212.518 705.637 212.363 705.632 212.223 705.578C212.06 705.513 211.878 705.514 211.716 705.581C211.554 705.648 211.424 705.775 211.354 705.936L209.922 709.322C209.854 709.485 209.854 709.668 209.921 709.831C209.988 709.994 210.117 710.123 210.28 710.191L210.791 710.406C210.927 710.469 211.037 710.576 211.105 710.709C211.172 710.842 211.193 710.995 211.163 711.141C211.134 711.288 211.056 711.42 210.942 711.517C210.828 711.613 210.684 711.669 210.535 711.674H209.972C209.797 711.677 209.631 711.748 209.508 711.872C209.386 711.997 209.317 712.165 209.317 712.339V716.011C209.317 716.186 209.386 716.353 209.508 716.478C209.631 716.602 209.797 716.674 209.972 716.676C210.128 716.67 210.281 716.719 210.403 716.815C210.526 716.912 210.61 717.048 210.641 717.201C210.672 717.354 210.647 717.512 210.571 717.649C210.496 717.785 210.374 717.89 210.228 717.944C210.066 718.01 209.937 718.137 209.868 718.298C209.799 718.459 209.796 718.64 209.86 718.803L211.251 722.219C211.284 722.299 211.332 722.372 211.393 722.434C211.454 722.495 211.526 722.544 211.606 722.577C211.686 722.61 211.771 722.628 211.858 722.628C211.945 722.628 212.03 722.61 212.11 722.577L212.621 722.377C212.754 722.336 212.896 722.337 213.028 722.382C213.16 722.427 213.274 722.513 213.353 722.627C213.433 722.741 213.475 722.877 213.472 723.016C213.469 723.155 213.422 723.29 213.337 723.4L212.948 723.8C212.885 723.86 212.835 723.933 212.801 724.013C212.767 724.093 212.749 724.179 212.749 724.266C212.749 724.353 212.767 724.439 212.801 724.519C212.835 724.599 212.885 724.671 212.948 724.731L215.548 727.331C215.608 727.394 215.68 727.444 215.76 727.478C215.84 727.512 215.927 727.53 216.014 727.53C216.101 727.53 216.187 727.512 216.267 727.478C216.347 727.444 216.419 727.394 216.479 727.331C216.589 727.228 216.731 727.166 216.881 727.154C217.031 727.143 217.18 727.182 217.305 727.266C217.43 727.351 217.522 727.475 217.567 727.618C217.612 727.762 217.607 727.917 217.553 728.057C217.488 728.22 217.489 728.402 217.556 728.564C217.623 728.726 217.75 728.856 217.911 728.926L221.297 730.358C221.46 730.423 221.642 730.422 221.804 730.355C221.966 730.288 222.096 730.161 222.166 730L222.381 729.489C222.444 729.353 222.551 729.243 222.684 729.175C222.817 729.108 222.97 729.087 223.116 729.117C223.263 729.146 223.395 729.224 223.492 729.339C223.588 729.453 223.644 729.596 223.649 729.745V730.308C223.652 730.483 223.723 730.649 223.847 730.772C223.972 730.894 224.139 730.963 224.314 730.963H227.986C228.161 730.963 228.328 730.894 228.453 730.772C228.577 730.649 228.648 730.483 228.651 730.308C228.645 730.152 228.694 730 228.79 729.877C228.886 729.755 229.023 729.67 229.176 729.639C229.329 729.609 229.487 729.633 229.623 729.709C229.76 729.785 229.864 729.906 229.919 730.052C229.985 730.214 230.112 730.344 230.273 730.412C230.434 730.481 230.615 730.484 230.778 730.42L234.194 729.029C234.274 728.997 234.347 728.948 234.409 728.888C234.47 728.827 234.519 728.754 234.552 728.674C234.585 728.594 234.603 728.509 234.603 728.422C234.602 728.336 234.585 728.25 234.552 728.17L234.352 727.659C234.29 727.518 234.279 727.359 234.322 727.211C234.365 727.063 234.459 726.935 234.588 726.849C234.716 726.764 234.871 726.726 235.024 726.743C235.177 726.76 235.32 726.831 235.426 726.943L235.826 727.332C235.886 727.395 235.958 727.445 236.038 727.479C236.118 727.514 236.205 727.531 236.292 727.531C236.379 727.531 236.465 727.514 236.545 727.479C236.625 727.445 236.697 727.395 236.757 727.332L239.357 724.732C239.42 724.672 239.47 724.6 239.504 724.52C239.538 724.44 239.556 724.354 239.556 724.267C239.556 724.18 239.538 724.094 239.504 724.014C239.47 723.934 239.42 723.861 239.357 723.801C239.281 723.695 239.238 723.568 239.234 723.437C239.23 723.306 239.264 723.177 239.333 723.066C239.402 722.955 239.502 722.866 239.62 722.811C239.739 722.756 239.872 722.738 240.001 722.758C240.162 722.826 240.344 722.828 240.507 722.763C240.67 722.698 240.8 722.571 240.87 722.41L242.302 719.025C242.367 718.862 242.366 718.68 242.299 718.518C242.232 718.356 242.105 718.226 241.944 718.156L241.433 717.941C241.297 717.878 241.187 717.772 241.119 717.638C241.052 717.505 241.031 717.353 241.061 717.206C241.09 717.06 241.168 716.927 241.282 716.831C241.396 716.734 241.54 716.678 241.689 716.673H242.252C242.427 716.671 242.593 716.599 242.716 716.475C242.838 716.35 242.907 716.183 242.907 716.008V712.336C242.906 712.249 242.888 712.162 242.853 712.082C242.819 712.001 242.769 711.929 242.706 711.868C242.643 711.807 242.569 711.758 242.488 711.726C242.406 711.694 242.32 711.678 242.232 711.679V711.679Z" fill="#152A33"/>
<path d="M115.351 712.67L116.521 715.53C116.637 715.816 116.861 716.044 117.145 716.165C117.429 716.285 117.749 716.289 118.035 716.174L118.935 715.806C119.183 715.701 119.46 715.686 119.718 715.763C119.976 715.841 120.199 716.006 120.349 716.231C120.498 716.455 120.564 716.724 120.535 716.992C120.507 717.26 120.386 717.51 120.193 717.698L119.508 718.398C119.292 718.618 119.172 718.914 119.172 719.222C119.172 719.53 119.292 719.825 119.508 720.045L124.09 724.627C124.31 724.843 124.606 724.964 124.914 724.964C125.222 724.964 125.517 724.843 125.737 724.627C125.925 724.43 126.177 724.306 126.447 724.277C126.718 724.247 126.99 724.314 127.216 724.466C127.442 724.617 127.607 724.844 127.683 725.105C127.759 725.367 127.739 725.646 127.629 725.895C127.569 726.035 127.536 726.186 127.535 726.339C127.533 726.492 127.561 726.643 127.618 726.785C127.675 726.927 127.76 727.056 127.867 727.165C127.974 727.274 128.102 727.36 128.243 727.419L134.216 729.935C134.356 729.996 134.507 730.028 134.66 730.03C134.813 730.032 134.964 730.003 135.106 729.946C135.248 729.889 135.377 729.804 135.486 729.697C135.594 729.59 135.681 729.462 135.74 729.321L136.118 728.421C136.218 728.169 136.403 727.961 136.641 727.832C136.88 727.703 137.155 727.661 137.421 727.715C137.686 727.769 137.925 727.914 138.094 728.125C138.264 728.336 138.353 728.6 138.348 728.871V729.843C138.348 730.152 138.471 730.449 138.69 730.668C138.908 730.886 139.205 731.009 139.514 731.009H145.989C146.298 731.009 146.595 730.886 146.814 730.668C147.032 730.449 147.155 730.152 147.155 729.843C147.16 729.576 147.257 729.319 147.429 729.115C147.602 728.911 147.839 728.772 148.101 728.721C148.363 728.671 148.635 728.712 148.87 728.838C149.106 728.964 149.291 729.167 149.395 729.413C149.452 729.555 149.537 729.683 149.644 729.792C149.752 729.9 149.879 729.987 150.02 730.045C150.161 730.104 150.312 730.135 150.464 730.135C150.617 730.135 150.768 730.106 150.909 730.047L156.909 727.613C157.051 727.556 157.179 727.471 157.288 727.364C157.396 727.257 157.482 727.129 157.541 726.988C157.6 726.847 157.631 726.696 157.631 726.544C157.631 726.391 157.601 726.24 157.543 726.099L157.175 725.189C157.079 724.941 157.07 724.667 157.151 724.414C157.231 724.16 157.396 723.942 157.618 723.795C157.84 723.648 158.106 723.581 158.371 723.606C158.636 723.631 158.884 723.746 159.075 723.931L159.76 724.631C159.98 724.847 160.276 724.968 160.584 724.968C160.892 724.968 161.187 724.847 161.407 724.631L165.989 720.049C166.205 719.829 166.326 719.534 166.326 719.226C166.326 718.918 166.205 718.622 165.989 718.402C165.792 718.214 165.668 717.963 165.639 717.692C165.609 717.422 165.676 717.149 165.828 716.923C165.979 716.697 166.206 716.532 166.467 716.456C166.729 716.381 167.008 716.4 167.257 716.51C167.542 716.629 167.862 716.63 168.148 716.513C168.434 716.396 168.661 716.171 168.781 715.886L170.141 712.674L115.351 712.67Z" fill="#152A33"/>
<path d="M159.956 697.348C158.766 697.347 157.606 696.973 156.641 696.277C155.676 695.581 154.953 694.6 154.576 693.471C153.087 689.038 150.693 684.964 147.546 681.505C144.4 678.046 140.568 675.279 136.296 673.378C132.023 671.478 127.402 670.487 122.726 670.466C118.05 670.446 113.421 671.397 109.132 673.26V718.66H217.882V697.388L159.956 697.348Z" fill="#D07A00"/>
<path d="M151.02 699.793C150.752 699.79 150.494 699.695 150.288 699.523C150.082 699.352 149.941 699.115 149.89 698.852C149.838 698.589 149.878 698.316 150.004 698.08C150.13 697.843 150.333 697.657 150.58 697.553C150.866 697.437 151.094 697.213 151.215 696.929C151.335 696.645 151.339 696.325 151.224 696.039L148.824 690.025C148.767 689.884 148.682 689.755 148.575 689.646C148.468 689.538 148.34 689.452 148.199 689.393C148.058 689.334 147.907 689.303 147.755 689.303C147.602 689.303 147.451 689.333 147.31 689.391L146.41 689.759C146.161 689.86 145.885 689.872 145.629 689.793C145.372 689.714 145.15 689.549 145.001 689.326C144.852 689.103 144.785 688.835 144.811 688.568C144.836 688.3 144.953 688.05 145.142 687.859L145.842 687.174C146.058 686.954 146.178 686.659 146.178 686.351C146.178 686.043 146.058 685.747 145.842 685.527L141.26 680.945C141.04 680.729 140.744 680.609 140.437 680.609C140.129 680.609 139.833 680.729 139.613 680.945C139.422 681.135 139.172 681.253 138.904 681.28C138.637 681.306 138.368 681.239 138.144 681.09C137.92 680.941 137.754 680.719 137.675 680.462C137.596 680.205 137.608 679.928 137.71 679.679C137.771 679.539 137.803 679.388 137.805 679.235C137.806 679.082 137.778 678.931 137.721 678.789C137.664 678.647 137.579 678.518 137.472 678.409C137.365 678.301 137.237 678.214 137.096 678.155L131.123 675.629C130.838 675.51 130.518 675.509 130.232 675.626C129.946 675.743 129.719 675.968 129.599 676.253L129.221 677.153C129.121 677.405 128.936 677.613 128.698 677.742C128.459 677.871 128.184 677.913 127.918 677.859C127.653 677.806 127.414 677.661 127.245 677.449C127.076 677.238 126.986 676.974 126.991 676.703V675.679C126.991 675.37 126.868 675.073 126.65 674.855C126.431 674.636 126.134 674.513 125.825 674.513H119.309C119.001 674.524 118.71 674.656 118.499 674.881C118.288 675.106 118.175 675.405 118.184 675.713C118.181 675.981 118.086 676.24 117.914 676.445C117.743 676.651 117.506 676.792 117.243 676.843C116.98 676.895 116.707 676.855 116.471 676.729C116.234 676.603 116.048 676.4 115.944 676.153C115.828 675.867 115.604 675.639 115.32 675.518C115.036 675.398 114.716 675.394 114.43 675.509L108.43 677.954C108.289 678.011 108.16 678.096 108.051 678.203C107.943 678.311 107.857 678.438 107.798 678.579C107.739 678.72 107.708 678.871 107.708 679.023C107.708 679.176 107.738 679.327 107.796 679.468L108.164 680.368C108.265 680.617 108.277 680.893 108.198 681.149C108.119 681.406 107.954 681.628 107.731 681.777C107.508 681.926 107.24 681.993 106.972 681.968C106.705 681.942 106.455 681.825 106.264 681.636L105.579 680.936C105.359 680.72 105.063 680.6 104.756 680.6C104.448 680.6 104.152 680.72 103.932 680.936L99.35 685.518C99.1344 685.738 99.0136 686.034 99.0136 686.342C99.0136 686.65 99.1344 686.945 99.35 687.165C99.5373 687.357 99.6526 687.608 99.6764 687.875C99.7003 688.142 99.6313 688.41 99.481 688.632C99.3308 688.854 99.1085 689.018 98.8516 689.095C98.5948 689.173 98.3191 689.159 98.071 689.057C97.9315 688.997 97.7813 688.965 97.6292 688.963C97.4772 688.961 97.3263 688.99 97.1854 689.047C97.0445 689.104 96.9164 689.189 96.8085 689.296C96.7006 689.403 96.6151 689.531 96.557 689.671L94.02 695.641C93.9011 695.926 93.9 696.246 94.017 696.532C94.134 696.818 94.3595 697.045 94.644 697.165L95.544 697.543C95.7957 697.643 96.0043 697.828 96.1333 698.066C96.2624 698.305 96.3037 698.58 96.2501 698.846C96.1966 699.111 96.0515 699.35 95.8402 699.519C95.6289 699.689 95.3648 699.778 95.094 699.773H94.076C93.7668 699.773 93.4702 699.896 93.2515 700.115C93.0329 700.333 92.91 700.63 92.91 700.939V707.414C92.91 707.723 93.0329 708.02 93.2515 708.239C93.4702 708.457 93.7668 708.58 94.076 708.58C94.3439 708.583 94.6025 708.679 94.8083 708.85C95.0142 709.021 95.1548 709.258 95.2064 709.521C95.258 709.784 95.2176 710.057 95.0919 710.293C94.9661 710.53 94.7628 710.716 94.516 710.82C94.2303 710.936 94.0022 711.16 93.8815 711.444C93.7608 711.728 93.7574 712.048 93.872 712.334L96.317 718.334C96.3743 718.476 96.459 718.604 96.5663 718.713C96.6735 718.821 96.8012 718.907 96.942 718.966C97.0827 719.025 97.2337 719.056 97.3863 719.056C97.5389 719.056 97.6901 719.026 97.831 718.968L98.731 718.6C98.9798 718.499 99.2558 718.487 99.5124 718.566C99.7691 718.645 99.9906 718.81 100.14 719.033C100.289 719.256 100.356 719.524 100.33 719.792C100.305 720.059 100.188 720.309 99.999 720.5L99.299 721.185C99.0834 721.405 98.9626 721.701 98.9626 722.009C98.9626 722.317 99.0834 722.612 99.299 722.832L103.963 727.432C104.183 727.648 104.479 727.769 104.787 727.769C105.094 727.769 105.39 727.648 105.61 727.432C105.802 727.245 106.053 727.13 106.32 727.106C106.587 727.082 106.855 727.151 107.077 727.301C107.299 727.451 107.463 727.674 107.54 727.93C107.618 728.187 107.604 728.463 107.502 728.711C107.442 728.851 107.41 729.001 107.408 729.153C107.406 729.305 107.435 729.456 107.492 729.597C107.549 729.738 107.634 729.866 107.741 729.974C107.848 730.082 107.976 730.167 108.116 730.225L114.089 732.751C114.374 732.87 114.694 732.871 114.98 732.754C115.266 732.637 115.493 732.412 115.613 732.127L115.991 731.227C116.099 730.985 116.286 730.788 116.522 730.667C116.757 730.546 117.027 730.508 117.286 730.56C117.545 730.613 117.779 730.752 117.949 730.955C118.119 731.158 118.215 731.412 118.221 731.677V732.7C118.23 732.988 118.347 733.263 118.547 733.471C118.747 733.679 119.017 733.805 119.305 733.825H125.78C126.089 733.825 126.386 733.702 126.605 733.484C126.823 733.265 126.946 732.968 126.946 732.659C126.949 732.391 127.044 732.133 127.216 731.927C127.387 731.721 127.624 731.58 127.887 731.529C128.15 731.477 128.423 731.518 128.659 731.643C128.896 731.769 129.082 731.972 129.186 732.219C129.302 732.505 129.526 732.733 129.81 732.854C130.094 732.974 130.414 732.978 130.7 732.863L136.7 730.418C136.841 730.361 136.97 730.276 137.079 730.169C137.187 730.062 137.273 729.934 137.332 729.793C137.391 729.652 137.422 729.501 137.422 729.349C137.422 729.196 137.392 729.045 137.334 728.904L136.966 728.004C136.865 727.755 136.853 727.479 136.932 727.223C137.011 726.966 137.176 726.744 137.399 726.595C137.622 726.446 137.89 726.379 138.158 726.405C138.425 726.43 138.675 726.547 138.866 726.736L139.551 727.436C139.771 727.652 140.067 727.773 140.375 727.773C140.683 727.773 140.978 727.652 141.198 727.436L145.78 722.854C145.996 722.634 146.116 722.339 146.116 722.031C146.116 721.723 145.996 721.427 145.78 721.207C145.593 721.015 145.478 720.764 145.454 720.497C145.43 720.23 145.499 719.962 145.649 719.74C145.799 719.518 146.022 719.354 146.278 719.277C146.535 719.199 146.811 719.213 147.059 719.315C147.199 719.376 147.349 719.408 147.501 719.409C147.653 719.411 147.804 719.383 147.945 719.326C148.086 719.268 148.214 719.184 148.322 719.077C148.43 718.969 148.515 718.842 148.573 718.701L151.099 712.728C151.218 712.443 151.219 712.123 151.102 711.837C150.985 711.551 150.76 711.324 150.475 711.204L149.575 710.826C149.323 710.726 149.115 710.541 148.986 710.303C148.857 710.065 148.815 709.789 148.869 709.523C148.922 709.258 149.068 709.019 149.279 708.85C149.49 708.681 149.754 708.591 150.025 708.596H151.048C151.357 708.596 151.654 708.473 151.873 708.255C152.091 708.036 152.214 707.739 152.214 707.43V700.959C152.214 700.802 152.183 700.647 152.122 700.503C152.06 700.359 151.971 700.229 151.858 700.12C151.746 700.011 151.612 699.926 151.466 699.87C151.32 699.814 151.164 699.788 151.007 699.793H151.02Z" fill="#23424E"/>
<path d="M122.582 717.641C130.01 717.641 136.032 711.619 136.032 704.191C136.032 696.763 130.01 690.741 122.582 690.741C115.154 690.741 109.132 696.763 109.132 704.191C109.132 711.619 115.154 717.641 122.582 717.641Z" fill="#152A33"/>
<path d="M122.582 711.044C126.367 711.044 129.435 707.976 129.435 704.191C129.435 700.406 126.367 697.338 122.582 697.338C118.797 697.338 115.729 700.406 115.729 704.191C115.729 707.976 118.797 711.044 122.582 711.044Z" fill="#345C6C"/>
<path d="M222.38 685.76H226.666C228.565 685.76 230.386 686.514 231.729 687.857C233.072 689.2 233.826 691.021 233.826 692.92V718.654H215.21V692.94C215.207 691.997 215.391 691.063 215.75 690.192C216.109 689.32 216.637 688.528 217.304 687.861C217.97 687.194 218.761 686.665 219.632 686.304C220.503 685.944 221.437 685.759 222.38 685.76V685.76Z" fill="#F5BD70"/>
<path d="M189.7 684.174H190.406V689.626H189.7V684.174Z" fill="#0C3948"/>
<path d="M191.429 684.174H192.135V689.626H191.429V684.174Z" fill="#0C3948"/>
<path d="M193.168 684.174H193.874V689.626H193.168V684.174Z" fill="#0C3948"/>
<path d="M194.896 684.174H195.602V689.626H194.896V684.174Z" fill="#0C3948"/>
<path d="M168.764 629.678H155.251V630.967C153.007 631.405 150.798 632.01 148.644 632.777H188.864C182.345 630.794 175.577 629.751 168.764 629.678V629.678Z" fill="#F68F00"/>
<path d="M135.132 632.818H175.37C168.655 630.786 161.678 629.752 154.662 629.749C148.027 629.665 141.425 630.702 135.136 632.818H135.132Z" fill="#D07A00"/>
<path d="M161.245 637.042L160.529 634.464C158.595 634.09 156.615 634.014 154.658 634.239L153.85 636.95C151.037 637.175 149.063 637.666 149.063 638.25C149.063 639.027 152.653 639.661 157.072 639.661C161.491 639.661 165.081 639.027 165.081 638.25C165.05 637.738 163.516 637.288 161.245 637.042Z" fill="#FF9C00"/>
<path d="M160.887 638.883C160.887 638.883 160.56 643.639 159.813 643.905C159.199 644.088 158.545 644.088 157.931 643.905L157.461 646.973C157.441 648.14 157.3 649.303 157.042 650.441L155.518 648.201V646.687L152.918 645.02L153.859 641.665L153.959 638.382C153.959 638.382 156.744 637.083 160.887 638.883V638.883Z" fill="#FF6C6C"/>
<path d="M153.962 638.413L153.862 641.696C154.127 641.678 154.385 641.604 154.62 641.479C154.854 641.354 155.059 641.18 155.222 640.97C155.099 640.841 155.006 640.687 154.949 640.518C154.891 640.349 154.871 640.17 154.89 639.993C154.91 639.815 154.967 639.645 155.059 639.492C155.151 639.339 155.275 639.208 155.422 639.108C155.862 638.965 156.261 639.875 156.261 639.875L157.48 637.962C156.288 637.823 155.08 637.978 153.961 638.412L153.962 638.413Z" fill="#0C3948"/>
<path d="M157.931 643.864C157.084 643.458 156.374 642.815 155.885 642.013" stroke="#BE3838" stroke-width="0.733" stroke-linecap="round" stroke-linejoin="round"/>
<path d="M167.638 662.204C167.638 662.204 166.728 658.778 165.766 655.494C164.354 653.54 163.066 651.894 163.107 652.364C163.179 653.387 163.281 654.696 163.307 656.23C163.333 657.764 163.471 660.638 163.501 662.081C163.451 663.689 163.318 665.294 163.101 666.888C163.101 666.888 164.431 667.236 166.108 667.522C166.108 666.704 166.272 665.65 167.387 665.476C168.502 665.302 168.942 663.829 169.187 662.581L167.638 662.204Z" fill="#656B12"/>
<path d="M154.852 646.81L154.064 649.541C153.062 648.494 152.301 647.241 151.834 645.869" fill="black"/>
<path d="M165.132 670.704C166.095 671.002 167.101 671.134 168.108 671.093C168.926 670.878 170.583 670.203 171.381 670.469C172.179 670.735 171.729 672.801 171.105 673.353C170.899 673.5 170.652 673.578 170.4 673.578C170.147 673.578 169.9 673.5 169.694 673.353C169.207 673.366 168.726 673.246 168.303 673.005L164.692 672.954L165.132 670.704Z" fill="#FF6C6C"/>
<path d="M219.066 714.491C218.911 714.494 218.761 714.443 218.64 714.346C218.52 714.249 218.438 714.112 218.408 713.96C218.379 713.809 218.404 713.651 218.48 713.516C218.555 713.381 218.676 713.277 218.821 713.223C218.983 713.157 219.113 713.03 219.181 712.869C219.25 712.708 219.253 712.527 219.189 712.364L217.799 708.957C217.733 708.795 217.606 708.666 217.445 708.597C217.284 708.528 217.103 708.525 216.94 708.589L216.429 708.804C216.288 708.859 216.132 708.863 215.987 708.817C215.843 708.771 215.719 708.677 215.635 708.55C215.551 708.424 215.514 708.272 215.528 708.121C215.542 707.97 215.607 707.829 215.713 707.72L216.102 707.331C216.225 707.205 216.293 707.036 216.293 706.861C216.293 706.685 216.225 706.516 216.102 706.39L213.502 703.79C213.376 703.668 213.207 703.599 213.032 703.599C212.856 703.599 212.687 703.668 212.561 703.79C212.449 703.869 212.314 703.912 212.177 703.912C212.039 703.912 211.905 703.869 211.793 703.789C211.68 703.71 211.596 703.597 211.55 703.467C211.504 703.337 211.5 703.196 211.538 703.064C211.572 702.985 211.589 702.9 211.59 702.814C211.591 702.728 211.574 702.642 211.542 702.562C211.51 702.483 211.462 702.41 211.402 702.349C211.341 702.287 211.269 702.239 211.19 702.205L207.79 700.773C207.711 700.739 207.626 700.722 207.54 700.721C207.454 700.72 207.368 700.737 207.288 700.769C207.209 700.801 207.136 700.849 207.075 700.909C207.013 700.97 206.965 701.042 206.931 701.121L206.716 701.632C206.653 701.768 206.547 701.878 206.413 701.946C206.28 702.013 206.128 702.034 205.981 702.004C205.834 701.975 205.702 701.897 205.606 701.783C205.509 701.669 205.453 701.525 205.448 701.376V700.824C205.448 700.648 205.378 700.479 205.253 700.354C205.129 700.229 204.959 700.159 204.783 700.159H201.101C200.926 700.162 200.76 700.233 200.637 700.357C200.515 700.482 200.446 700.649 200.446 700.824C200.444 700.977 200.389 701.124 200.29 701.241C200.192 701.359 200.056 701.438 199.906 701.467C199.756 701.496 199.601 701.472 199.466 701.399C199.331 701.327 199.226 701.21 199.167 701.069C199.134 700.989 199.086 700.916 199.025 700.854C198.965 700.793 198.892 700.744 198.812 700.711C198.732 700.678 198.647 700.661 198.56 700.661C198.474 700.661 198.388 700.678 198.308 700.711L194.902 702.092C194.74 702.158 194.611 702.285 194.542 702.446C194.473 702.607 194.47 702.788 194.534 702.951L194.749 703.462C194.804 703.604 194.808 703.759 194.762 703.904C194.716 704.048 194.622 704.172 194.495 704.256C194.369 704.34 194.217 704.377 194.066 704.363C193.915 704.349 193.774 704.284 193.665 704.178L193.276 703.789C193.152 703.667 192.985 703.599 192.811 703.599C192.636 703.599 192.469 703.667 192.345 703.789L189.686 706.389C189.564 706.515 189.495 706.684 189.495 706.86C189.495 707.035 189.564 707.204 189.686 707.33C189.798 707.436 189.869 707.579 189.886 707.732C189.903 707.885 189.866 708.04 189.78 708.168C189.694 708.297 189.566 708.391 189.418 708.434C189.27 708.477 189.111 708.466 188.97 708.404C188.809 708.336 188.627 708.334 188.464 708.399C188.301 708.464 188.171 708.591 188.101 708.752L186.669 712.152C186.636 712.232 186.619 712.318 186.619 712.404C186.619 712.491 186.636 712.576 186.669 712.656C186.702 712.736 186.751 712.809 186.813 712.869C186.874 712.93 186.947 712.978 187.027 713.011L187.527 713.226C187.673 713.281 187.795 713.385 187.87 713.522C187.946 713.658 187.971 713.816 187.94 713.969C187.909 714.122 187.825 714.259 187.702 714.355C187.58 714.451 187.427 714.5 187.271 714.494H186.719C186.632 714.494 186.546 714.511 186.466 714.545C186.386 714.578 186.313 714.627 186.252 714.689C186.191 714.751 186.143 714.824 186.111 714.905C186.078 714.986 186.063 715.072 186.064 715.159V718.841C186.064 719.015 186.133 719.181 186.256 719.304C186.379 719.427 186.545 719.496 186.719 719.496C186.872 719.498 187.019 719.553 187.136 719.652C187.254 719.75 187.333 719.886 187.362 720.036C187.391 720.186 187.367 720.342 187.294 720.476C187.222 720.611 187.105 720.716 186.964 720.775C186.884 720.808 186.811 720.856 186.75 720.917C186.688 720.978 186.639 721.05 186.606 721.13C186.573 721.21 186.556 721.295 186.556 721.382C186.556 721.468 186.573 721.554 186.606 721.634L187.987 725.04C188.055 725.203 188.184 725.332 188.347 725.401C188.509 725.47 188.692 725.472 188.856 725.408L189.367 725.193C189.509 725.139 189.664 725.134 189.809 725.18C189.953 725.226 190.077 725.321 190.161 725.447C190.245 725.574 190.282 725.725 190.268 725.876C190.254 726.027 190.189 726.168 190.083 726.277L189.683 726.666C189.561 726.79 189.493 726.957 189.493 727.132C189.493 727.306 189.561 727.473 189.683 727.597L192.291 730.205C192.415 730.327 192.582 730.395 192.757 730.395C192.931 730.395 193.098 730.327 193.222 730.205C193.334 730.126 193.469 730.083 193.606 730.083C193.744 730.083 193.878 730.126 193.991 730.206C194.103 730.286 194.188 730.398 194.233 730.528C194.279 730.658 194.283 730.799 194.245 730.931C194.212 731.011 194.195 731.097 194.195 731.183C194.195 731.27 194.212 731.355 194.245 731.435C194.278 731.515 194.327 731.588 194.389 731.648C194.45 731.709 194.523 731.757 194.603 731.79L197.989 733.222C198.151 733.29 198.332 733.292 198.495 733.227C198.658 733.162 198.788 733.035 198.858 732.874L199.073 732.363C199.128 732.217 199.232 732.095 199.369 732.02C199.505 731.944 199.664 731.919 199.816 731.95C199.969 731.981 200.106 732.065 200.202 732.188C200.298 732.311 200.347 732.463 200.341 732.619V733.171C200.341 733.346 200.41 733.513 200.532 733.638C200.655 733.762 200.821 733.833 200.996 733.836H204.678C204.854 733.836 205.024 733.766 205.148 733.641C205.273 733.517 205.343 733.347 205.343 733.171C205.34 733.016 205.391 732.866 205.488 732.745C205.585 732.625 205.722 732.543 205.874 732.513C206.025 732.484 206.183 732.509 206.318 732.585C206.453 732.66 206.557 732.781 206.611 732.926C206.644 733.006 206.692 733.079 206.753 733.141C206.814 733.202 206.886 733.251 206.966 733.284C207.046 733.317 207.131 733.335 207.218 733.335C207.305 733.335 207.39 733.317 207.47 733.284L210.886 731.903C211.046 731.835 211.173 731.707 211.24 731.547C211.307 731.386 211.309 731.206 211.244 731.044L211.044 730.522C211.002 730.389 211.004 730.247 211.049 730.115C211.094 729.983 211.18 729.869 211.294 729.79C211.408 729.71 211.544 729.669 211.683 729.671C211.822 729.674 211.957 729.722 212.067 729.806L212.456 730.206C212.582 730.329 212.751 730.397 212.927 730.397C213.102 730.397 213.271 730.329 213.397 730.206L215.997 727.598C216.119 727.474 216.187 727.307 216.187 727.133C216.187 726.958 216.119 726.791 215.997 726.667C215.894 726.557 215.832 726.415 215.82 726.265C215.808 726.115 215.848 725.966 215.932 725.841C216.017 725.716 216.141 725.624 216.284 725.579C216.428 725.534 216.583 725.539 216.723 725.593C216.802 725.627 216.887 725.644 216.973 725.645C217.06 725.646 217.145 725.629 217.225 725.597C217.304 725.565 217.377 725.517 217.438 725.457C217.5 725.396 217.549 725.324 217.582 725.245L219.014 721.845C219.049 721.766 219.068 721.681 219.069 721.594C219.071 721.508 219.055 721.422 219.022 721.342C218.99 721.261 218.942 721.189 218.88 721.128C218.819 721.066 218.746 721.018 218.666 720.986L218.155 720.761C218.019 720.698 217.909 720.591 217.841 720.458C217.774 720.325 217.753 720.173 217.783 720.026C217.812 719.879 217.89 719.747 218.004 719.651C218.118 719.554 218.262 719.498 218.411 719.493H218.963C219.138 719.493 219.305 719.424 219.43 719.302C219.554 719.179 219.625 719.013 219.628 718.838V715.151C219.63 714.991 219.574 714.836 219.471 714.714C219.367 714.591 219.223 714.511 219.065 714.486L219.066 714.491Z" fill="#23424E"/>
<path d="M202.895 724.638C207.115 724.638 210.536 721.217 210.536 716.997C210.536 712.777 207.115 709.356 202.895 709.356C198.675 709.356 195.254 712.777 195.254 716.997C195.254 721.217 198.675 724.638 202.895 724.638Z" fill="#152A33"/>
<path d="M206.788 716.997C206.788 717.768 206.559 718.522 206.131 719.164C205.702 719.805 205.093 720.305 204.381 720.6C203.668 720.895 202.884 720.973 202.127 720.822C201.371 720.672 200.676 720.3 200.13 719.755C199.585 719.209 199.213 718.514 199.063 717.758C198.912 717.001 198.99 716.217 199.285 715.505C199.58 714.792 200.08 714.183 200.721 713.754C201.363 713.326 202.117 713.097 202.888 713.097C203.922 713.097 204.914 713.508 205.646 714.239C206.377 714.971 206.788 715.963 206.788 716.997V716.997Z" fill="#345C6C"/>
<path d="M145.729 646.463C140.748 646.463 138.129 649.863 139.019 655.515C139.909 661.167 143.632 671.062 146.905 672.842C150.178 674.622 165.05 674.56 165.05 674.56L165.561 670.469C165.561 670.469 159.076 667.799 154.627 666.582C153.809 666.367 155.885 665.396 152.919 663.391C149.953 661.386 150.781 658.164 149.032 657.07C147.283 655.976 145.729 646.463 145.729 646.463V646.463Z" fill="#979B3F"/>
<path d="M1863.49 594.615H1914.31V686.332H1863.49V594.615Z" fill="#FFF1E7"/>
<path d="M1880.11 556.515L1858.69 600.64H1793.59L1827.35 556.515H1880.11Z" fill="#93D19C"/>
<path d="M1830.09 556.678L1796.15 600.639H1798.08V686.332H1863.49V596.032L1830.09 556.678Z" fill="#FFDCBD"/>
<path d="M1830.01 578.577C1832.34 578.577 1834.58 579.505 1836.23 581.157C1837.88 582.808 1838.81 585.048 1838.81 587.384V608.362H1820.89V587.68C1820.89 586.484 1821.13 585.3 1821.59 584.195C1822.04 583.09 1822.72 582.086 1823.56 581.241C1824.41 580.396 1825.41 579.726 1826.52 579.269C1827.62 578.812 1828.81 578.578 1830.01 578.58V578.577Z" fill="#F9CCAD"/>
<path d="M1921.38 603.084H1862.28L1827.34 556.514H1847.01L1885.43 556.524L1921.38 603.084Z" fill="#93D19C"/>
<path d="M1921.38 603.084H1910.55L1847.02 556.514L1885.43 556.524L1921.38 603.084Z" fill="#93D19C"/>
<path d="M1823 612.965L1807.74 644.376H1761.38L1785.55 613.076L1823 612.965Z" fill="#FF9E41"/>
<path d="M1787.61 613.077L1763.44 644.377V668.025C1767.42 670.893 1771.82 673.148 1776.47 674.714C1781.98 676.615 1787.74 677.684 1793.57 677.885C1793.57 677.885 1793.83 677.946 1794.35 678.018H1809.69V644.376H1809.79L1787.61 613.077Z" fill="#FFDCBD"/>
<path d="M1848.19 644.376V671.716C1845.4 672.534 1842.69 673.261 1840.08 673.905C1832.39 675.821 1824.58 677.188 1816.7 677.996H1809.03V644.376H1848.19Z" fill="#FFF1E7"/>
<path d="M1852.5 646.227H1810.42L1785.54 613.077H1798.08L1826.9 613.087L1852.5 646.227Z" fill="#FF9E41"/>
<path d="M1795.3 651.348V678.013H1793.69C1793.16 677.941 1792.91 677.88 1792.91 677.88C1787.08 677.679 1781.32 676.61 1775.81 674.709V651.669C1775.81 649.042 1776.86 646.524 1778.71 644.668C1780.57 642.812 1783.09 641.769 1785.72 641.769C1788.26 641.772 1790.69 642.783 1792.49 644.578C1794.29 646.374 1795.3 648.808 1795.3 651.348V651.348Z" fill="#F9CCAD"/>
<path d="M1785.55 628.328C1785.12 628.328 1784.7 628.456 1784.34 628.697C1783.98 628.938 1783.7 629.279 1783.53 629.679C1783.37 630.079 1783.32 630.52 1783.41 630.944C1783.49 631.369 1783.7 631.759 1784.01 632.065C1784.31 632.371 1784.7 632.58 1785.13 632.664C1785.55 632.749 1785.99 632.705 1786.39 632.539C1786.79 632.374 1787.13 632.093 1787.37 631.733C1787.61 631.373 1787.74 630.95 1787.74 630.517C1787.74 629.937 1787.51 629.38 1787.1 628.969C1786.69 628.559 1786.13 628.328 1785.55 628.328V628.328Z" fill="#F9CCAD"/>
<path d="M1852.5 646.227H1844.51L1798.08 613.077L1826.9 613.087L1852.5 646.227Z" fill="#FF852E"/>
<path d="M379.094 325.805C371.464 327.319 292.794 327.114 268.935 326.695C259.73 326.276 261.435 307.384 272.648 303.374C283.861 299.364 291.274 301.247 291.274 301.247C291.274 301.247 292.389 275.347 314.063 278.223C335.737 281.099 339.133 301.155 339.133 301.155C339.133 301.155 351.775 286.314 368.222 295.655C384.669 304.996 379.094 325.805 379.094 325.805V325.805Z" fill="#CCE2FF"/>
<path d="M1790.77 68.6741C1783.15 70.1981 1704.48 69.9941 1680.61 69.5741C1671.4 69.1551 1673.11 50.2531 1684.33 46.2531C1695.55 42.2531 1702.94 44.1261 1702.94 44.1261C1702.94 44.1261 1704.04 18.2261 1725.71 21.1021C1747.39 23.9781 1750.79 44.0241 1750.79 44.0241C1750.79 44.0241 1763.44 29.1831 1779.87 38.5241C1796.31 47.8651 1790.77 68.6741 1790.77 68.6741V68.6741Z" fill="#CCE2FF"/>
<path d="M1616.21 115.99C1608.58 117.514 1529.91 117.299 1506.04 116.89C1496.84 116.471 1498.55 97.5691 1509.76 93.5691C1520.97 89.5691 1528.37 91.4421 1528.37 91.4421C1528.37 91.4421 1529.48 65.5421 1551.16 68.4081C1572.83 71.2741 1576.22 91.3401 1576.22 91.3401C1576.22 91.3401 1588.87 76.4991 1605.31 85.8401C1621.74 95.1811 1616.21 115.99 1616.21 115.99V115.99Z" fill="#CCE2FF"/>
<g opacity="0.5">
<path opacity="0.5" d="M1845.68 539.352C1838.86 539.352 1832.2 537.332 1826.54 533.547C1820.87 529.762 1816.46 524.382 1813.85 518.087C1811.24 511.793 1810.56 504.866 1811.89 498.184C1813.22 491.502 1816.5 485.363 1821.32 480.545C1826.13 475.727 1832.27 472.446 1838.95 471.117C1845.63 469.787 1852.56 470.468 1858.86 473.075C1865.15 475.682 1870.53 480.097 1874.32 485.761C1878.1 491.426 1880.12 498.086 1880.12 504.899C1880.13 509.423 1879.23 513.903 1877.5 518.083C1875.77 522.263 1873.24 526.062 1870.04 529.261C1866.84 532.46 1863.04 534.998 1858.86 536.729C1854.68 538.461 1850.2 539.352 1845.68 539.352ZM1845.68 471.784C1839.13 471.784 1832.72 473.727 1827.28 477.366C1821.83 481.005 1817.58 486.178 1815.08 492.23C1812.57 498.282 1811.92 504.941 1813.19 511.365C1814.47 517.79 1817.63 523.691 1822.26 528.323C1826.89 532.954 1832.79 536.109 1839.22 537.386C1845.64 538.664 1852.3 538.007 1858.35 535.5C1864.4 532.993 1869.58 528.748 1873.21 523.301C1876.85 517.854 1878.8 511.451 1878.79 504.9C1878.79 496.117 1875.3 487.694 1869.09 481.483C1862.88 475.273 1854.46 471.784 1845.68 471.784V471.784Z" fill="url(#paint38_linear)"/>
</g>
<path opacity="0.2" d="M1845.67 538.687C1864.33 538.687 1879.46 523.561 1879.46 504.903C1879.46 486.245 1864.33 471.119 1845.67 471.119C1827.02 471.119 1811.89 486.245 1811.89 504.903C1811.89 523.561 1827.02 538.687 1845.67 538.687Z" fill="black"/>
<path d="M1839.21 499.195L1840.97 501.578C1842.57 500.564 1844.42 500.015 1846.32 499.991C1848.21 499.968 1850.07 500.471 1851.7 501.445L1853.63 499.399C1851.78 497.16 1843.1 495.517 1839.21 499.195Z" fill="white"/>
<path d="M1835.82 494.593L1837.43 496.772C1840.42 495.072 1849.22 493.877 1855 497.795L1857.94 495.207C1853.63 492.036 1842.01 490.42 1835.82 494.593V494.593Z" fill="white"/>
<path d="M1832.9 490.235L1834.53 492.444C1841.96 488.944 1852.42 489.161 1858.56 493.405L1861.39 491.145C1856.74 486.563 1841.05 483.771 1832.9 490.235Z" fill="white"/>
<path d="M1846.71 505.619C1847.87 505.619 1848.8 504.68 1848.8 503.522C1848.8 502.364 1847.87 501.425 1846.71 501.425C1845.55 501.425 1844.61 502.364 1844.61 503.522C1844.61 504.68 1845.55 505.619 1846.71 505.619Z" fill="white"/>
<path d="M1838.86 514.098C1838.96 515.356 1839.19 517.166 1839.39 519.038H1839.45C1839.94 517.079 1840.32 515.096 1840.59 513.096L1842.22 513.229C1841.71 516.084 1841.02 518.906 1840.17 521.678L1838.97 521.578C1838.61 520.299 1838.31 519 1838.03 517.742C1837.76 519.122 1837.42 520.488 1837.01 521.833L1835.81 521.741C1835.26 518.949 1834.71 516.126 1834.39 513.2L1835.99 513.333C1836.12 514.806 1836.34 516.841 1836.61 519.071H1836.67C1837.03 517.414 1837.39 515.736 1837.6 514.039L1838.86 514.098Z" fill="white"/>
<path d="M1845.04 513.167C1844.97 514.467 1844.93 515.929 1844.93 517.391C1844.93 519.038 1844.98 520.664 1845.09 522.065L1843.42 521.912C1843.3 520.163 1843.25 518.659 1843.25 517.187C1843.25 515.715 1843.25 514.538 1843.36 513.014L1845.04 513.167Z" fill="white"/>
<path d="M1849.29 519.621C1849.05 519.606 1848.81 519.606 1848.57 519.621C1847.86 519.621 1847.07 519.733 1846.31 519.733L1846.16 518.393C1846.96 518.393 1847.8 518.28 1848.57 518.28C1848.8 518.264 1849.03 518.264 1849.26 518.28L1849.29 519.621Z" fill="white"/>
<path d="M1854.98 514.742C1854.16 514.742 1853.25 514.742 1852.37 514.824C1852.37 515.448 1852.37 516.604 1852.3 517.217C1853.04 517.108 1853.79 517.046 1854.54 517.033L1854.79 518.404C1853.95 518.411 1853.12 518.469 1852.29 518.578V521.994L1850.61 521.8V518.66C1850.61 517.197 1850.7 514.937 1850.8 513.546C1852.16 513.338 1853.53 513.228 1854.89 513.219L1854.98 514.742Z" fill="white"/>
<path d="M1857.9 513.167C1857.82 514.467 1857.79 515.929 1857.79 517.391C1857.75 518.951 1857.81 520.511 1857.95 522.065L1856.27 521.912C1856.16 520.163 1856.11 518.659 1856.11 517.187C1856.11 515.715 1856.11 514.538 1856.22 513.014L1857.9 513.167Z" fill="white"/>
</g>
<defs>
<linearGradient id="paint0_linear" x1="1687.16" y1="652.425" x2="1687.51" y2="691.791" gradientUnits="userSpaceOnUse">
<stop stop-color="#FFE4B1"/>
<stop offset="1" stop-color="#9F46A9"/>
</linearGradient>
<linearGradient id="paint1_linear" x1="1735.55" y1="480.307" x2="1735.55" y2="466.72" gradientUnits="userSpaceOnUse">
<stop offset="0.01" stop-color="#D3C5FF"/>
<stop offset="1" stop-color="#FFD7FF"/>
</linearGradient>
<linearGradient id="paint2_linear" x1="1733.41" y1="669.55" x2="1733.41" y2="665.815" gradientUnits="userSpaceOnUse">
<stop offset="0.01" stop-color="#ACB6FF"/>
<stop offset="1" stop-color="#E9BFFF"/>
</linearGradient>
<linearGradient id="paint3_linear" x1="1750.9" y1="547.739" x2="1750.9" y2="478.616" gradientUnits="userSpaceOnUse">
<stop offset="0.01" stop-color="#8574C8"/>
<stop offset="1" stop-color="#A697E4"/>
</linearGradient>
<linearGradient id="paint4_linear" x1="1733.41" y1="668.204" x2="1733.41" y2="472.886" gradientUnits="userSpaceOnUse">
<stop offset="0.01" stop-color="#D3C5FF"/>
<stop offset="1" stop-color="#FFD7FF"/>
</linearGradient>
<linearGradient id="paint5_linear" x1="1733.41" y1="668.147" x2="1733.41" y2="634.434" gradientUnits="userSpaceOnUse">
<stop stop-color="#A72A2C"/>
<stop offset="1" stop-color="#FB4928"/>
</linearGradient>
<linearGradient id="paint6_linear" x1="1752.56" y1="548.713" x2="1752.56" y2="473.205" gradientUnits="userSpaceOnUse">
<stop offset="0.01" stop-color="#D3C5FF"/>
<stop offset="1" stop-color="#FFD7FF"/>
</linearGradient>
<linearGradient id="paint7_linear" x1="1698.05" y1="512.51" x2="1698.05" y2="475.926" gradientUnits="userSpaceOnUse">
<stop offset="0.01" stop-color="#8574C8"/>
<stop offset="1" stop-color="#A697E4"/>
</linearGradient>
<linearGradient id="paint8_linear" x1="1698.92" y1="515.406" x2="1698.92" y2="476.101" gradientUnits="userSpaceOnUse">
<stop offset="0.01" stop-color="#D3C5FF"/>
<stop offset="1" stop-color="#FFD7FF"/>
</linearGradient>
<linearGradient id="paint9_linear" x1="1748.65" y1="475.864" x2="1748.65" y2="414.699" gradientUnits="userSpaceOnUse">
<stop offset="0.01" stop-color="#8574C8"/>
<stop offset="1" stop-color="#A697E4"/>
</linearGradient>
<linearGradient id="paint10_linear" x1="1750.14" y1="478.535" x2="1750.14" y2="413.909" gradientUnits="userSpaceOnUse">
<stop offset="0.01" stop-color="#D3C5FF"/>
<stop offset="1" stop-color="#FFD7FF"/>
</linearGradient>
<linearGradient id="paint11_linear" x1="1731.03" y1="668.197" x2="1731.03" y2="479.87" gradientUnits="userSpaceOnUse">
<stop stop-color="#D18AC7"/>
<stop offset="1" stop-color="#696CF4"/>
</linearGradient>
<linearGradient id="paint12_linear" x1="1673.42" y1="515.406" x2="1673.42" y2="503.109" gradientUnits="userSpaceOnUse">
<stop stop-color="#A72A2C"/>
<stop offset="1" stop-color="#FB4928"/>
</linearGradient>
<linearGradient id="paint13_linear" x1="1722.94" y1="477.948" x2="1722.94" y2="477.948" gradientUnits="userSpaceOnUse">
<stop stop-color="#D18AC7"/>
<stop offset="1" stop-color="#696CF4"/>
</linearGradient>
<linearGradient id="paint14_linear" x1="1735.85" y1="488.514" x2="1735.85" y2="475.708" gradientUnits="userSpaceOnUse">
<stop stop-color="#D18AC7"/>
<stop offset="1" stop-color="#696CF4"/>
</linearGradient>
<linearGradient id="paint15_linear" x1="1733.85" y1="459.029" x2="1733.85" y2="459.029" gradientUnits="userSpaceOnUse">
<stop stop-color="#D18AC7"/>
<stop offset="1" stop-color="#696CF4"/>
</linearGradient>
<linearGradient id="paint16_linear" x1="1727.24" y1="481.202" x2="1727.24" y2="465.828" gradientUnits="userSpaceOnUse">
<stop offset="0.01" stop-color="#D3C5FF"/>
<stop offset="1" stop-color="#FFD7FF"/>
</linearGradient>
<linearGradient id="paint17_linear" x1="1720.57" y1="472.429" x2="1724.87" y2="472.429" gradientUnits="userSpaceOnUse">
<stop offset="0.01" stop-color="#ACB6FF"/>
<stop offset="1" stop-color="#E9BFFF"/>
</linearGradient>
<linearGradient id="paint18_linear" x1="1725.68" y1="466.133" x2="1725.68" y2="466.133" gradientUnits="userSpaceOnUse">
<stop stop-color="#D18AC7"/>
<stop offset="1" stop-color="#696CF4"/>
</linearGradient>
<linearGradient id="paint19_linear" x1="1766" y1="548.715" x2="1766" y2="528.936" gradientUnits="userSpaceOnUse">
<stop stop-color="#A72A2C"/>
<stop offset="1" stop-color="#FB4928"/>
</linearGradient>
<linearGradient id="paint20_linear" x1="1764.93" y1="429.501" x2="1764.93" y2="413.909" gradientUnits="userSpaceOnUse">
<stop stop-color="#A72A2C"/>
<stop offset="1" stop-color="#FB4928"/>
</linearGradient>
<linearGradient id="paint21_linear" x1="1451.79" y1="512.862" x2="1525.8" y2="614.683" gradientUnits="userSpaceOnUse">
<stop offset="0.01" stop-color="#17AA80"/>
<stop offset="0.3" stop-color="#18916A"/>
<stop offset="0.92" stop-color="#1C5033"/>
<stop offset="1" stop-color="#1C472B"/>
</linearGradient>
<radialGradient id="paint22_radial" cx="0" cy="0" r="1" gradientUnits="userSpaceOnUse" gradientTransform="translate(3128.88 651.415) scale(140.651 140.626)">
<stop stop-color="#244F8B"/>
<stop offset="0.16" stop-color="#25588A"/>
<stop offset="0.42" stop-color="#287287"/>
<stop offset="0.76" stop-color="#2C9B83"/>
<stop offset="0.99" stop-color="#30BC80"/>
</radialGradient>
<linearGradient id="paint23_linear" x1="1575.49" y1="541.296" x2="1622.04" y2="611.623" gradientUnits="userSpaceOnUse">
<stop offset="0.01" stop-color="#17AA80"/>
<stop offset="0.3" stop-color="#18916A"/>
<stop offset="0.92" stop-color="#1C5033"/>
<stop offset="1" stop-color="#1C472B"/>
</linearGradient>
<linearGradient id="paint24_linear" x1="7.45549" y1="684.735" x2="7.79516" y2="691.757" gradientUnits="userSpaceOnUse">
<stop stop-color="#002486"/>
<stop offset="0.17" stop-color="#022788"/>
<stop offset="0.31" stop-color="#08328F"/>
<stop offset="0.45" stop-color="#12449A"/>
<stop offset="0.58" stop-color="#1F5CA9"/>
<stop offset="0.7" stop-color="#307ABC"/>
<stop offset="1" stop-color="white"/>
</linearGradient>
<linearGradient id="paint25_linear" x1="104.217" y1="715.976" x2="104.735" y2="725.716" gradientUnits="userSpaceOnUse">
<stop stop-color="#002486"/>
<stop offset="0.17" stop-color="#022788"/>
<stop offset="0.31" stop-color="#08328F"/>
<stop offset="0.45" stop-color="#12449A"/>
<stop offset="0.58" stop-color="#1F5CA9"/>
<stop offset="0.7" stop-color="#307ABC"/>
<stop offset="1" stop-color="white"/>
</linearGradient>
<linearGradient id="paint26_linear" x1="63.6396" y1="677.241" x2="63.8389" y2="681.84" gradientUnits="userSpaceOnUse">
<stop stop-color="#002486"/>
<stop offset="0.17" stop-color="#022788"/>
<stop offset="0.31" stop-color="#08328F"/>
<stop offset="0.45" stop-color="#12449A"/>
<stop offset="0.58" stop-color="#1F5CA9"/>
<stop offset="0.7" stop-color="#307ABC"/>
<stop offset="1" stop-color="white"/>
</linearGradient>
<linearGradient id="paint27_linear" x1="756.098" y1="671.328" x2="755.784" y2="681.76" gradientUnits="userSpaceOnUse">
<stop offset="0.01" stop-color="#30A259"/>
<stop offset="0.26" stop-color="#2F8457"/>
<stop offset="0.55" stop-color="#2F6A55"/>
<stop offset="0.8" stop-color="#2E5A54"/>
<stop offset="1" stop-color="#2E5454"/>
</linearGradient>
<linearGradient id="paint28_linear" x1="832.05" y1="581.986" x2="838.513" y2="678.073" gradientUnits="userSpaceOnUse">
<stop stop-color="#3D57AA"/>
<stop offset="0.38" stop-color="#416DB2"/>
<stop offset="0.99" stop-color="#4A98C1"/>
</linearGradient>
<linearGradient id="paint29_linear" x1="856.17" y1="620.474" x2="856.17" y2="650.326" gradientUnits="userSpaceOnUse">
<stop offset="0.01" stop-color="#52C8B7"/>
<stop offset="0.43" stop-color="#32AA93"/>
<stop offset="0.78" stop-color="#1E977D"/>
<stop offset="1" stop-color="#179075"/>
</linearGradient>
<linearGradient id="paint30_linear" x1="1025.46" y1="606.157" x2="1026.14" y2="656.797" gradientUnits="userSpaceOnUse">
<stop offset="0.01" stop-color="#1C9BA0"/>
<stop offset="0.14" stop-color="#1B8D8A"/>
<stop offset="0.33" stop-color="#197D72"/>
<stop offset="0.53" stop-color="#187260"/>
<stop offset="0.75" stop-color="#176B55"/>
<stop offset="1" stop-color="#176952"/>
</linearGradient>
<linearGradient id="paint31_linear" x1="713.149" y1="701.717" x2="710.919" y2="729.914" gradientUnits="userSpaceOnUse">
<stop offset="0.01" stop-color="#30A259"/>
<stop offset="0.42" stop-color="#2F7B56"/>
<stop offset="0.79" stop-color="#2E5F55"/>
<stop offset="1" stop-color="#2E5454"/>
</linearGradient>
<linearGradient id="paint32_linear" x1="3612.62" y1="669.907" x2="3612.68" y2="681.361" gradientUnits="userSpaceOnUse">
<stop stop-color="#002486"/>
<stop offset="0.14" stop-color="#022788"/>
<stop offset="0.26" stop-color="#08328F"/>
<stop offset="0.37" stop-color="#12449A"/>
<stop offset="0.47" stop-color="#1F5CA9"/>
<stop offset="0.57" stop-color="#307ABC"/>
<stop offset="1" stop-color="white"/>
</linearGradient>
<linearGradient id="paint33_linear" x1="2128.03" y1="670.48" x2="2128.33" y2="676.058" gradientUnits="userSpaceOnUse">
<stop stop-color="#002486"/>
<stop offset="0.17" stop-color="#022788"/>
<stop offset="0.31" stop-color="#08328F"/>
<stop offset="0.45" stop-color="#12449A"/>
<stop offset="0.58" stop-color="#1F5CA9"/>
<stop offset="0.7" stop-color="#307ABC"/>
<stop offset="1" stop-color="white"/>
</linearGradient>
<linearGradient id="paint34_linear" x1="2104.78" y1="648.303" x2="2104.89" y2="650.928" gradientUnits="userSpaceOnUse">
<stop stop-color="#002486"/>
<stop offset="0.17" stop-color="#022788"/>
<stop offset="0.31" stop-color="#08328F"/>
<stop offset="0.45" stop-color="#12449A"/>
<stop offset="0.58" stop-color="#1F5CA9"/>
<stop offset="0.7" stop-color="#307ABC"/>
<stop offset="1" stop-color="white"/>
</linearGradient>
<linearGradient id="paint35_linear" x1="1481.71" y1="601.522" x2="1483.53" y2="704.242" gradientUnits="userSpaceOnUse">
<stop offset="0.01" stop-color="#1C9BA0"/>
<stop offset="0.14" stop-color="#1B8D8A"/>
<stop offset="0.33" stop-color="#197D72"/>
<stop offset="0.53" stop-color="#187260"/>
<stop offset="0.75" stop-color="#176B55"/>
<stop offset="1" stop-color="#176952"/>
</linearGradient>
<linearGradient id="paint36_linear" x1="1661.85" y1="601.522" x2="1663.68" y2="704.242" gradientUnits="userSpaceOnUse">
<stop offset="0.01" stop-color="#1C9BA0"/>
<stop offset="0.14" stop-color="#1B8D8A"/>
<stop offset="0.33" stop-color="#197D72"/>
<stop offset="0.53" stop-color="#187260"/>
<stop offset="0.75" stop-color="#176B55"/>
<stop offset="1" stop-color="#176952"/>
</linearGradient>
<linearGradient id="paint37_linear" x1="1574.15" y1="598.588" x2="1575.97" y2="701.307" gradientUnits="userSpaceOnUse">
<stop offset="0.01" stop-color="#1C9BA0"/>
<stop offset="0.14" stop-color="#1B8D8A"/>
<stop offset="0.33" stop-color="#197D72"/>
<stop offset="0.53" stop-color="#187260"/>
<stop offset="0.75" stop-color="#176B55"/>
<stop offset="1" stop-color="#176952"/>
</linearGradient>
<linearGradient id="paint38_linear" x1="1845.68" y1="539.352" x2="1845.68" y2="470.454" gradientUnits="userSpaceOnUse">
<stop stop-color="#1A2E5E"/>
<stop offset="1" stop-color="#4D829B"/>
</linearGradient>
<clipPath id="clip0">
<rect width="1971.17" height="878.787" fill="white"/>
</clipPath>
</defs>
</svg>
